<svg xmlns="http://www.w3.org/2000/svg" enable-background="new 0 0 64 64" viewBox="0 0 64 64"><path d="M21.6,21.4C22,21.8,22.5,22,23,22s1-0.2,1.4-0.6l4-4c0.8-0.8,0.8-2,0-2.8c-0.8-0.8-2-0.8-2.8,0L23,17.2l-0.6-0.6
		c-0.8-0.8-2-0.8-2.8,0c-0.8,0.8-0.8,2,0,2.8L21.6,21.4z"/><path d="M53.8,30l-1.9-4.8c-0.3-0.8-1-1.3-1.9-1.3h-5v-3c0-3.3-2.7-6-6-6h-3.4c-1.3-5.2-6-9-11.6-9s-10.3,3.8-11.6,9H10
		c-3.3,0-6,2.7-6,6V43c0,3.3,2.7,6,6,6h1.1c0.5,3.4,3.4,6,6.9,6s6.4-2.6,6.9-6H37h2h2.1c0.5,3.4,3.4,6,6.9,6s6.4-2.6,6.9-6H58
		c1.1,0,2-0.9,2-2v-8c0-0.4-0.1-0.9-0.4-1.2L53.8,30z M24,10c4.4,0,8,3.6,8,8s-3.6,8-8,8s-8-3.6-8-8S19.6,10,24,10z M18,51
		c-1.3,0-2.4-0.8-2.8-2h5.6C20.4,50.2,19.3,51,18,51z M37,45H10c-1.1,0-2-0.9-2-2V21c0-1.1,0.9-2,2-2h2c0.5,6.1,5.7,11,11.9,11
		s11.4-4.9,11.9-11h3c1.1,0,2,0.9,2,2V43c0,1.1-0.9,2-2,2H37z M48,51c-1.3,0-2.4-0.8-2.8-2h5.6C50.4,50.2,49.3,51,48,51z M56,45
		H44.6c0.2-0.6,0.4-1.3,0.4-2V28h3.6l1.5,3.7c0.1,0.2,0.2,0.3,0.3,0.5l5.6,7.5V45z"/></svg>