<svg xmlns="http://www.w3.org/2000/svg" data-name="Layer 1" viewBox="0 0 1000 1000"><path d="M730.35,660.54A56.79,56.79,0,0,1,694.71,648l-12.52-10a16,16,0,1,1,20-25l12.52,10a25.27,25.27,0,1,0,31.55-39.48l-10.51-8.4a16,16,0,1,1,20-25l10.51,8.4a57.27,57.27,0,0,1-29.4,101.66A58.59,58.59,0,0,1,730.35,660.54Z"/><path d="M671.09,718.77a57,57,0,0,1-35.7-12.5l-21.7-17.34a16,16,0,1,1,20-25l21.7,17.34a25.27,25.27,0,1,0,31.55-39.49L567.7,546.52a16,16,0,0,1,20-25L706.9,616.78a57.25,57.25,0,0,1-35.81,102Z"/><path d="M607.38,773.61a56.84,56.84,0,0,1-35.64-12.54l-31.1-24.85a16,16,0,0,1,20-25l31.11,24.85a25.27,25.27,0,0,0,31.55-39.49l-135.21-108a16,16,0,1,1,20-25l135.21,108a57.28,57.28,0,0,1-29.4,101.67A58.59,58.59,0,0,1,607.38,773.61Z"/><path d="M533.06,819.81a57,57,0,0,1-35.69-12.5L338.51,680.37a16,16,0,1,1,20-25L517.34,782.31a25.28,25.28,0,1,0,31.56-39.49l-88.14-70.43a16,16,0,0,1,20-25l88.14,70.43a57.25,57.25,0,0,1-35.81,102Z"/><path d="M348.49 683.88a15.92 15.92 0 01-10.24-3.72c-53.05-44.27-112-191.81-114.49-198.07a16 16 0 0129.74-11.81c16.1 40.55 66.39 152.88 105.25 185.31a16 16 0 01-10.26 28.29zM367.53 330.85a16 16 0 01-3.86-31.53c1.13-.28 28-6.81 65.27-1.26a16 16 0 01-4.71 31.65c-30.56-4.55-52.6.61-52.81.66A15.75 15.75 0 01367.53 330.85z"/><path d="M745.72 578.62a16 16 0 01-9.82-3.37L546.71 428.31a16 16 0 01-1.32-1.15c-10.42-10.1-21.21-14.9-33-14.73-19.59.32-36.9 14.26-42.87 19.65-10.35 27.32-25.74 43.84-45.8 49.12A53.39 53.39 0 01410 483c-25.14 0-45.42-17-48-19.26a16 16 0 01-2.48-21.34c20-28 18-70.46 17.94-70.88a17.5 17.5 0 01.06-2.71c3.58-33.15 36.71-65.41 41.44-69.86 19.89-19.8 45.63-32.92 76.5-39 23.93-4.72 51-5.21 80.38-1.45a386.57 386.57 0 0189.83 22.93A16 16 0 11653.44 311h0C652 310.37 510.17 253 441.39 321.73c-.12.13-.25.25-.38.37-7.43 7-28.83 30.67-31.53 49 .29 8.13.54 43.82-15.35 75.55 6.42 3.13 14.38 5.48 21.49 3.56 12.45-3.35 20.47-19.48 25-32.43a16 16 0 013.51-5.74c1.2-1.26 29.8-30.86 67.41-31.62 20.31-.4 39 7.37 55.47 23.12L738.74 536.94l12.51-31.38A16 16 0 11781 517.41l-20.39 51.14a16 16 0 01-10.66 9.51A16.33 16.33 0 01745.72 578.62zM183 537.67a55.75 55.75 0 01-34.9-12.23h0l-42.68-34.1a56 56 0 01-8.79-78.71L265.54 201.21a56 56 0 0178.7-8.8l42.69 34.11a56 56 0 018.79 78.7L226.78 516.65A55.94 55.94 0 01183 537.67zm-14.92-37.23a24 24 0 0033.73-3.77L370.72 285.25A24 24 0 00367 251.52l-42.68-34.11a24 24 0 00-33.73 3.77L121.6 432.61a24 24 0 003.77 33.73l42.68 34.1z"/><path d="M810.77,567.35a56.06,56.06,0,0,1-50.28-31.16l-120-242.55a56,56,0,0,1,25.35-75l49-24.23a56,56,0,0,1,75,25.35l120,242.55a56,56,0,0,1-25.35,75l-49,24.23h0A55.68,55.68,0,0,1,810.77,567.35Zm17.65-20.15h0ZM739.58,220.56a23.93,23.93,0,0,0-10.62,2.5l-49,24.23a24,24,0,0,0-10.87,32.16L789.17,522a24,24,0,0,0,32.15,10.86l49-24.23a24,24,0,0,0,10.86-32.15l-120-242.55a23.85,23.85,0,0,0-13.82-12.1A24.1,24.1,0,0,0,739.58,220.56Z"/></svg>