<svg xmlns="http://www.w3.org/2000/svg" width="558" height="401.45" viewBox="0 0 558 401.45">
  <g id="undraw_unlock_24mb" transform="translate(0)">
    <path id="Path_80" data-name="Path 80" d="M652.554,674.735q-43.128-6.486-82.953-11.183l10.5-17.445c-3.539-1.074-19.09,8.871-19.09,8.871l13.782-50.717c-17.8,1.761-26.858,53.57-26.858,53.57l-19.888-17.625,9.625,19.755c-81.259-8.613-151.438-12-210.467-12.387l8.986-14.931c-3.539-1.074-19.09,8.871-19.09,8.871L330.881,590.8c-17.8,1.761-26.858,53.57-26.858,53.57l-19.885-17.626,10.195,20.924c-49.486.616-89.842,3.328-120.99,6.49,9.09-23.283,39.96-45.321,39.96-45.321-23.574,5.915-35.941,15.956-42.4,25.342a356.148,356.148,0,0,1,27.52-141.187s-48.738,90.92-42.529,152.133l.742,10.868c-41.309,4.889-62.077,10.08-62.077,10.08Z" transform="translate(-94.554 -273.285)" fill="#3f3d56"/>
    <path id="Path_81" data-name="Path 81" d="M492.846,102.425V459.938a16.3,16.3,0,0,1-16.511,16.056H327.182A16.717,16.717,0,0,1,315.5,471.3a15.822,15.822,0,0,1-4.831-11.362V102.425a16.292,16.292,0,0,1,16.512-16.067H349.5v2.785A13.417,13.417,0,0,0,363.1,102.375h75.859a13.733,13.733,0,0,0,8.06-2.581,12.554,12.554,0,0,0,1.338-1.092,13.023,13.023,0,0,0,4.194-9.558V86.358h23.789a16.288,16.288,0,0,1,16.511,16.067Z" transform="translate(-192.87 -86.358)" fill="#3f3d56"/>
    <circle id="Ellipse_17" data-name="Ellipse 17" cx="3.968" cy="3.968" r="3.968" transform="translate(155.836 57.247)" fill="#f2f2f2"/>
    <path id="Path_82" data-name="Path 82" d="M552.559,108.738a12.632,12.632,0,0,1-1.338,1.122,70.99,70.99,0,0,0,45.831,34.116v-1.768A69.319,69.319,0,0,1,552.559,108.738Z" transform="translate(-299.736 -96.053)" fill="#ff5151"/>
    <path id="Path_83" data-name="Path 83" d="M492.35,115.4h-1.859a102.969,102.969,0,0,0,80.253,64.077v-1.757A101.2,101.2,0,0,1,492.35,115.4Z" transform="translate(-272.895 -98.938)" fill="#ff5151"/>
    <path id="Path_84" data-name="Path 84" d="M431.982,115.4h-1.791a135.766,135.766,0,0,0,114.431,96.991V210.66A134.04,134.04,0,0,1,431.982,115.4Z" transform="translate(-246.165 -98.938)" fill="#ff5151"/>
    <path id="Path_85" data-name="Path 85" d="M264.693,159.033H263.66V158h-.2v1.033h-1.033v.2h1.033v1.033h.2v-1.033h1.033Z" transform="translate(-117.586 -70.799)" fill="#f2f2f2"/>
    <path id="Path_86" data-name="Path 86" d="M387.693,68.033H386.66V67h-.2v1.033h-1.033v.2h1.033v1.033h.2V68.234h1.033Z" transform="translate(-172.699 -29.024)" fill="#f2f2f2"/>
    <path id="Path_87" data-name="Path 87" d="M282.693,231.033H281.66V230h-.2v1.033h-1.033v.2h1.033v1.033h.2v-1.033h1.033Z" transform="translate(-125.651 -103.062)" fill="#f2f2f2"/>
    <path id="Path_88" data-name="Path 88" d="M366.693,178.033H365.66V177h-.2v1.033h-1.033v.2h1.033v1.033h.2v-1.033h1.033Z" transform="translate(-163.29 -79.313)" fill="#f2f2f2"/>
    <path id="Path_89" data-name="Path 89" d="M486.693,211.033h-1.033V210h-.2v1.033h-1.033v.2h1.033v1.033h.2v-1.033h1.033Z" transform="translate(-217.058 -94.1)" fill="#f2f2f2"/>
    <circle id="Ellipse_18" data-name="Ellipse 18" cx="2.267" cy="2.267" r="2.267" transform="translate(255.75 68.583)" fill="#ff6584"/>
    <path id="Path_90" data-name="Path 90" d="M417.7,305.158l-1.287.2c.4,2.573.72,5.2.952,7.8l1.3-.113C418.429,310.412,418.106,307.76,417.7,305.158Z" transform="translate(-238.77 -184.448)" fill="#e6e6e6"/>
    <path id="Path_91" data-name="Path 91" d="M411.518,277.818l-1.247.38c.754,2.494,1.428,5.05,2,7.6l1.275-.289C412.963,282.931,412.277,280.346,411.518,277.818Z" transform="translate(-236.027 -172.191)" fill="#e6e6e6"/>
    <path id="Path_92" data-name="Path 92" d="M401.656,251.6l-1.185.544c1.088,2.375,2.108,4.812,3.032,7.249l1.219-.459C403.787,256.467,402.761,254,401.656,251.6Z" transform="translate(-231.643 -160.435)" fill="#e6e6e6"/>
    <path id="Path_93" data-name="Path 93" d="M388.321,227.018l-1.1.7c1.4,2.2,2.743,4.478,3.99,6.762l1.145-.623C391.1,231.541,389.738,229.24,388.321,227.018Z" transform="translate(-225.712 -149.414)" fill="#e6e6e6"/>
    <path id="Path_94" data-name="Path 94" d="M371.743,204.488l-.992.845c1.689,1.984,3.333,4.058,4.886,6.155l1.043-.777C375.115,208.592,373.455,206.494,371.743,204.488Z" transform="translate(-218.337 -137.532)" fill="#e6e6e6"/>
    <path id="Path_95" data-name="Path 95" d="M352.258,184.428l-.867.969c1.95,1.74,3.86,3.571,5.679,5.436l.935-.913C356.163,188.033,354.231,186.185,352.258,184.428Z" transform="translate(-209.665 -128.842)" fill="#e6e6e6"/>
    <path id="Path_96" data-name="Path 96" d="M330.242,167.208l-.731,1.077c2.165,1.457,4.308,3.01,6.365,4.614l.8-1.026C334.6,170.252,332.43,168.682,330.242,167.208Z" transform="translate(-199.862 -121.382)" fill="#e6e6e6"/>
    <path id="Path_97" data-name="Path 97" d="M310.671,155.248v1.474c1.355.708,2.7,1.451,4.013,2.211l.652-1.128Q313.04,156.478,310.671,155.248Z" transform="translate(-191.404 -116.201)" fill="#e6e6e6"/>
    <path id="Path_98" data-name="Path 98" d="M418.161,518.222c.211-1.267.4-2.562.575-3.846l1.292.171c-.172,1.3-.368,2.607-.581,3.889Z" transform="translate(-239.55 -278.179)" fill="#e6e6e6"/>
    <path id="Path_99" data-name="Path 99" d="M411.752,542.345l1.245.388c.781-2.519,1.489-5.1,2.1-7.67l-1.269-.3C413.222,537.306,412.528,539.854,411.752,542.345Z" transform="translate(-236.691 -287.381)" fill="#e6e6e6"/>
    <path id="Path_100" data-name="Path 100" d="M401.71,568.452l1.182.554c1.124-2.385,2.177-4.843,3.131-7.3l-1.216-.474C403.864,563.662,402.823,566.093,401.71,568.452Z" transform="translate(-232.199 -299.242)" fill="#e6e6e6"/>
    <path id="Path_101" data-name="Path 101" d="M388.2,593.057l1.093.71c1.441-2.21,2.824-4.5,4.112-6.807l-1.137-.638C391,588.6,389.625,590.867,388.2,593.057Z" transform="translate(-226.151 -310.486)" fill="#e6e6e6"/>
    <path id="Path_102" data-name="Path 102" d="M371.482,615.675l.988.856c1.734-2,3.415-4.08,5.008-6.184l-1.044-.781C374.864,611.646,373.2,613.7,371.482,615.675Z" transform="translate(-218.665 -320.896)" fill="#e6e6e6"/>
    <path id="Path_103" data-name="Path 103" d="M351.907,635.877l.858.98c1.993-1.739,3.942-3.573,5.8-5.437l-.922-.923C355.807,632.341,353.874,634.15,351.907,635.877Z" transform="translate(-209.897 -330.266)" fill="#e6e6e6"/>
    <path id="Path_104" data-name="Path 104" d="M329.855,653.3l.72,1.09c2.2-1.453,4.386-3,6.483-4.6l-.788-1.041C334.193,650.338,332.034,651.869,329.855,653.3Z" transform="translate(-200.017 -338.436)" fill="#e6e6e6"/>
    <path id="Path_105" data-name="Path 105" d="M315.483,665.146c-1.576.89-3.185,1.751-4.812,2.568v-1.462c1.406-.714,2.8-1.468,4.166-2.233Z" transform="translate(-191.405 -345.235)" fill="#e6e6e6"/>
    <path id="Path_106" data-name="Path 106" d="M418.836,333.446l1.3-.024c.024,1.316.026,2.638.005,3.931l-1.3-.02C418.861,336.054,418.859,334.747,418.836,333.446Z" transform="translate(-239.848 -197.082)" fill="#e6e6e6"/>
    <path id="Path_107" data-name="Path 107" d="M226.216,301.632H359.533a37.409,37.409,0,0,1,37.409,37.409v4.952H263.625a37.409,37.409,0,0,1-37.409-37.409v-4.952Z" transform="translate(-102.77 -135.647)" fill="#fff"/>
    <path id="Path_108" data-name="Path 108" d="M473.351,681.4c-.13-.213-3.2-5.334-4.26-15.968-.975-9.756-.348-26.2,8.18-49.14,16.157-43.457-3.723-78.52-3.927-78.869l.981-.569c.051.089,5.181,9.028,8.212,23.264a101.492,101.492,0,0,1-4.2,56.57c-16.129,43.383-4.138,63.92-4.015,64.122Z" transform="translate(-262.357 -292.288)" fill="#f2f2f2"/>
    <circle id="Ellipse_19" data-name="Ellipse 19" cx="7.368" cy="7.368" r="7.368" transform="translate(197.565 232.155)" fill="#ff5151"/>
    <circle id="Ellipse_20" data-name="Ellipse 20" cx="7.368" cy="7.368" r="7.368" transform="translate(220.18 258.624)" fill="#f2f2f2"/>
    <circle id="Ellipse_21" data-name="Ellipse 21" cx="7.368" cy="7.368" r="7.368" transform="translate(204.735 276.27)" fill="#ff5151"/>
    <circle id="Ellipse_22" data-name="Ellipse 22" cx="7.368" cy="7.368" r="7.368" transform="translate(223.489 291.158)" fill="#ff5151"/>
    <circle id="Ellipse_23" data-name="Ellipse 23" cx="7.368" cy="7.368" r="7.368" transform="translate(199.219 314.319)" fill="#f2f2f2"/>
    <path id="Path_109" data-name="Path 109" d="M483.823,768.1s-7.368-18.138,14.737-31.741Z" transform="translate(-268.588 -378.712)" fill="#f2f2f2"/>
    <path id="Path_110" data-name="Path 110" d="M446.336,777.161s-3.353-19.288-29.308-19.122Z" transform="translate(-239.285 -388.104)" fill="#f2f2f2"/>
    <circle id="Ellipse_24" data-name="Ellipse 24" cx="45.344" cy="45.344" r="45.344" transform="translate(133.14 141.882)" fill="#ff5151" opacity="0.2"/>
    <circle id="Ellipse_25" data-name="Ellipse 25" cx="31.932" cy="31.932" r="31.932" transform="translate(146.382 155.258)" fill="#ff5151" opacity="0.2"/>
    <circle id="Ellipse_26" data-name="Ellipse 26" cx="21.075" cy="21.075" r="21.075" transform="translate(157.114 166.089)" fill="#ff5151"/>
    <path id="Path_111" data-name="Path 111" d="M417.883,414.408a3.832,3.832,0,1,0-6.253,2.969l-1.411,9.879h7.664l-1.411-9.879A3.823,3.823,0,0,0,417.883,414.408Z" transform="translate(-236.04 -231.814)" fill="#fff"/>
    <path id="Path_112" data-name="Path 112" d="M730.028,137.362s-12.641-11.333-29.64,10.025-43.589,31.82-49.691,40.1c0,0,25.281-10.461,34-14.82s8.282-3.487,8.282-3.487-11.769,8.282-13.948,16.564-.436,15.256-4.359,23.538,74.973,5.666,74.973,5.666,7.846-13.512,5.667-27.461S754.438,139.105,730.028,137.362Z" transform="translate(-345.563 -107.152)" fill="#2f2e41"/>
    <path id="Path_113" data-name="Path 113" d="M735.283,202.56s2.749,19.241-9.031,23.56-7.461,10.21-7.461,10.21l17.67,8.639,18.848-5.89,6.283-9.424s-10.209-2.356-7.461-9.424,3.534-9.424,3.534-9.424Z" transform="translate(-374.635 -138.616)" fill="#ffb9b9"/>
    <path id="Path_114" data-name="Path 114" d="M735.283,202.56s2.749,19.241-9.031,23.56-7.461,10.21-7.461,10.21l17.67,8.639,18.848-5.89,6.283-9.424s-10.209-2.356-7.461-9.424,3.534-9.424,3.534-9.424Z" transform="translate(-374.635 -138.616)" opacity="0.1"/>
    <path id="Path_115" data-name="Path 115" d="M823.465,299.551s-2.749,36.126-1.963,37.7,0,56.152,0,56.152,5.5,29.45-1.571,31.021-5.5-32.984-5.5-32.984l-7.068-45.55.785-45.157Z" transform="translate(-414.211 -183.245)" fill="#ffb9b9"/>
    <path id="Path_116" data-name="Path 116" d="M823.465,299.551s-2.749,36.126-1.963,37.7,0,56.152,0,56.152,5.5,29.45-1.571,31.021-5.5-32.984-5.5-32.984l-7.068-45.55.785-45.157Z" transform="translate(-414.211 -183.245)" opacity="0.1"/>
    <path id="Path_117" data-name="Path 117" d="M691.066,491.454s-12.958,49.084-12.565,73.037,5.5,57.331,5.5,57.331.785,14.529-.393,16.1,5.89,8.246,5.89,8.246l7.461-4.319,2.749-3.141v-2.749s-4.319-13.351-.785-23.953,5.5-37.3,1.963-45.55L725.228,494.2Z" transform="translate(-356.935 -272.619)" fill="#ffb9b9"/>
    <path id="Path_118" data-name="Path 118" d="M679.636,750.014s-4.712-5.89-7.854-3.927-8.246,15.314-8.246,15.314-17.67,16.885-5.1,17.67,18.063-3.534,19.634-6.675,16.1-11.388,16.1-11.388-1.571-14.922-3.927-15.314-5.89,5.89-5.89,5.89Z" transform="translate(-345.784 -382.749)" fill="#2f2e41"/>
    <path id="Path_119" data-name="Path 119" d="M771.988,487.992v48.691a150.558,150.558,0,0,0,1.178,17.67c1.178,8.639-6.675,73.037-6.675,73.037l.785,11.388,9.817-.785,1.178-9.817,14.136-43.194s4.712-26.309,2.356-36.126,12.173-72.644,12.173-72.644Z" transform="translate(-396.348 -266.017)" fill="#ffb9b9"/>
    <path id="Path_120" data-name="Path 120" d="M761.7,754.736l2.908-.632s2.2-4.865,4.945-3.687a29.64,29.64,0,0,1,5.466,3.275l1.21,2.222a46.935,46.935,0,0,0,6.283,9.817c3.534,3.927,7.461,12.565,1.571,13.351s-13.744,1.178-16.1-.785-.785-5.1-3.141-5.89-4.319-3.141-3.927-3.927S761.7,754.736,761.7,754.736Z" transform="translate(-393.543 -384.723)" fill="#2f2e41"/>
    <circle id="Ellipse_27" data-name="Ellipse 27" cx="17.452" cy="17.452" r="17.452" transform="translate(358.632 44.485)" fill="#ffb9b9"/>
    <path id="Path_121" data-name="Path 121" d="M718,248.286l5.187-1.811s-2.045,3.382,8.949,5.345,22.381,2.658,27.487-3.776c0,0,1.964-.937,4.713,1.812s4.319,1.963,4.319,1.963l-1.963,10.21-3.927,18.848-5.1,14.136-14.529-3.141L727.42,280.485l-5.89-15.314V251.034Z" transform="translate(-374.761 -158.409)" fill="#ff5151"/>
    <path id="Path_122" data-name="Path 122" d="M750.9,254.9l3.927-2.749s13.351,2.356,14.136,8.639l-10.209,19.633a22.353,22.353,0,0,1-.393,16.885c-3.927,9.031-3.534,10.995-3.534,10.995l-2.749,11.78L702.2,324.011s-1.963-4.712-2.749-5.5-.785-3.534,0-3.534,0-1.178-.785-2.356-1.178-1.571,0-3.141-1.963-15.707-1.963-15.707V278.461l-13.351-17.67s4.712-7.068,7.068-7.853,13.564-3.882,13.564-3.882l2.536,3.734,3.534,28.421,5.1,17.278,21.494-3.652,8.35-14.018,5.5-16.492Z" transform="translate(-359.878 -159.784)" fill="#ff5151"/>
    <path id="Path_123" data-name="Path 123" d="M821.332,265.6l3.141,2.356s2.749,21.99,1.963,23.56-14.529,3.141-14.922,2.356S821.332,265.6,821.332,265.6Z" transform="translate(-416.045 -166.86)" fill="#ff5151"/>
    <path id="Path_124" data-name="Path 124" d="M706.425,245.005l3.927,25.916s-3.534,38.482-2.749,46.335l.785,2.356s-1.571-.785-1.963.785,0,6.675,0,6.675-2.356,2.356-3.141,15.314-10.21,43.979-6.675,45.157,24.738,7.068,36.126,5.89,52.225-14.922,51.833-18.456-20.026-53.4-20.026-53.4-3.534-5.89-3.534-6.675,4.712-3.927,3.534-7.068-7.461-36.126-7.461-36.126l4.319-23.56-5.89-1.571-4.319,22.775s-16.885,8.246-34.555.785l-3.927-26.7Z" transform="translate(-365.562 -158.064)" fill="#2f2e41"/>
    <path id="Path_125" data-name="Path 125" d="M747.864,167.533s29.058,20.026,36.911,10.995-13.744-16.885-13.744-16.885l-18.063-1.963Z" transform="translate(-387.946 -118.121)" fill="#2f2e41"/>
    <path id="Path_126" data-name="Path 126" d="M616.1,528.3a15.319,15.319,0,1,0-4.806-5.965L571.216,555.7l-5.336-6.333-2.4,1.6-2.668-3.167,2.192-1.847-2.668-3.167-3.41,2.873,1.642,1.949-3.654,3.079-1.642-1.949-5.359,4.515,2.463,2.923,1.949-1.642L555,557.708l-2.436,2.052,4.926,5.846-5.846,4.926,5.952,7.064ZM626.1,505.915a10.135,10.135,0,1,1-10.961,9.235,10.135,10.135,0,0,1,10.961-9.235Z" transform="translate(-298.962 -273.393)" fill="#ff5151"/>
    <path id="Path_127" data-name="Path 127" d="M678.451,307.864s2.749,36.126,1.963,37.7,0,56.152,0,56.152-5.5,29.45,1.571,31.021,5.5-32.985,5.5-32.985l7.068-45.55-.785-45.157Z" transform="translate(-356.367 -187.023)" fill="#ffb9b9"/>
    <path id="Path_128" data-name="Path 128" d="M682.993,267.682l-3.141,1.178s-5.89,24.738-4.319,24.738,20.419,2.356,20.419,1.571-3.534-20.026-3.534-20.026Z" transform="translate(-355.044 -167.787)" fill="#ff5151"/>
  </g>
</svg>
