<svg id="undraw_shopping_app_flsj" xmlns="http://www.w3.org/2000/svg" width="556.222" height="464.175" viewBox="0 0 556.222 464.175">
  <path id="Path_129" data-name="Path 129" d="M156,188.7h2.526V119.518a40.042,40.042,0,0,1,40.043-40.043H345.146a40.043,40.043,0,0,1,40.042,40.042V499.074a40.042,40.042,0,0,1-40.042,40.042H198.568a40.042,40.042,0,0,1-40.043-40.043V237.95H156Z" transform="translate(171.033 -79.476)" fill="#3f3d56"/>
  <path id="Path_130" data-name="Path 130" d="M203.543,96.107h19.133A14.207,14.207,0,0,0,235.83,115.68H319.8a14.207,14.207,0,0,0,13.154-19.573h17.871a29.9,29.9,0,0,1,29.9,29.9v379a29.9,29.9,0,0,1-29.9,29.9H203.543a29.9,29.9,0,0,1-29.9-29.9v-379a29.9,29.9,0,0,1,29.9-29.9Z" transform="translate(164.442 -85.69)" fill="#fff"/>
  <path id="Path_131" data-name="Path 131" d="M254.938,219.111h8.794a1.166,1.166,0,0,1,1.166,1.166v3.86a1.166,1.166,0,0,1-1.166,1.166h-1.457v5.783h-5.879V225.3h-1.457a1.166,1.166,0,0,1-1.166-1.166v-3.86A1.166,1.166,0,0,1,254.938,219.111Z" transform="translate(230.083 -131.647)" fill="#e6e6e6"/>
  <path id="Path_132" data-name="Path 132" d="M241.795,257.956a45.211,45.211,0,0,0,7.865-26.8.953.953,0,0,1,.744-.951v-1.668h9.287v1.645h.128a.953.953,0,0,1,.952.954q0,.035,0,.069a41.26,41.26,0,0,0,7.412,27.44,2.627,2.627,0,0,1,.475,1.592l-1.016,31.414a2.719,2.719,0,0,1-2.7,2.625H243.938a2.72,2.72,0,0,1-2.7-2.671l-.391-30.5A5.5,5.5,0,0,1,241.795,257.956Z" transform="translate(234.417 -135.166)" fill="#ff5151"/>
  <path id="Path_133" data-name="Path 133" d="M248.115,292.166H266.4a1.877,1.877,0,0,1,1.855,2.163l-2.763,17.96H249.625l-3.356-17.9a1.877,1.877,0,0,1,1.845-2.223Z" transform="translate(231.423 -158.942)" fill="#fff"/>
  <path id="Path_134" data-name="Path 134" d="M411.221,369.345h8.794a1.166,1.166,0,0,1,1.166,1.166v3.86a1.166,1.166,0,0,1-1.166,1.166h-1.457v5.783h-5.879v-5.783h-1.457a1.166,1.166,0,0,1-1.166-1.166v-3.86a1.166,1.166,0,0,1,1.165-1.166Z" transform="translate(-24.094 -187.778)" fill="#e6e6e6"/>
  <path id="Path_135" data-name="Path 135" d="M398.078,408.191a45.211,45.211,0,0,0,7.865-26.8.953.953,0,0,1,.744-.952v-1.668h9.288v1.645h.128a.953.953,0,0,1,.952.954q0,.035,0,.069a41.26,41.26,0,0,0,7.412,27.44,2.626,2.626,0,0,1,.475,1.592l-1.016,31.414a2.719,2.719,0,0,1-2.7,2.625H400.222a2.72,2.72,0,0,1-2.7-2.671l-.391-30.5a5.5,5.5,0,0,1,.946-3.143Z" transform="translate(-19.759 -191.298)" fill="#ff5151"/>
  <path id="Path_136" data-name="Path 136" d="M404.4,442.4h18.285a1.877,1.877,0,0,1,1.855,2.163l-2.763,17.96H405.909l-3.356-17.9A1.877,1.877,0,0,1,404.4,442.4Z" transform="translate(-22.753 -215.073)" fill="#fff"/>
  <path id="Path_137" data-name="Path 137" d="M242.946,581.733h4.171a.553.553,0,0,1,.553.553v1.831a.553.553,0,0,1-.553.553h-.691v2.743h-2.789V584.67h-.691a.553.553,0,0,1-.553-.553v-1.831a.553.553,0,0,1,.553-.553Z" transform="translate(254.438 -267.131)" fill="#e6e6e6"/>
  <path id="Path_138" data-name="Path 138" d="M236.711,600.159a21.445,21.445,0,0,0,3.731-12.715.452.452,0,0,1,.353-.451V586.2H245.2v.78h.061a.452.452,0,0,1,.451.453c0,.011,0,.022,0,.033a19.572,19.572,0,0,0,3.516,13.016,1.246,1.246,0,0,1,.225.755l-.482,14.9a1.29,1.29,0,0,1-1.279,1.245h-9.965a1.29,1.29,0,0,1-1.28-1.267l-.186-14.468A2.611,2.611,0,0,1,236.711,600.159Z" transform="translate(256.494 -268.8)" fill="#ff5151"/>
  <rect id="Rectangle_48" data-name="Rectangle 48" width="9.508" height="4.754" transform="translate(494.639 336.836)" fill="#fff"/>
  <path id="Path_139" data-name="Path 139" d="M273.946,581.733h4.171a.553.553,0,0,1,.553.553v1.831a.553.553,0,0,1-.553.553h-.691v2.743h-2.789V584.67h-.691a.553.553,0,0,1-.553-.553v-1.831a.553.553,0,0,1,.553-.553Z" transform="translate(204.02 -267.131)" fill="#e6e6e6"/>
  <path id="Path_140" data-name="Path 140" d="M267.711,600.159a21.446,21.446,0,0,0,3.731-12.715.452.452,0,0,1,.353-.451V586.2H276.2v.78h.061a.452.452,0,0,1,.451.453c0,.011,0,.022,0,.033a19.572,19.572,0,0,0,3.516,13.016,1.246,1.246,0,0,1,.225.755l-.482,14.9a1.29,1.29,0,0,1-1.279,1.245h-9.965a1.29,1.29,0,0,1-1.28-1.267l-.186-14.468A2.611,2.611,0,0,1,267.711,600.159Z" transform="translate(206.076 -268.8)" fill="#ff5151"/>
  <rect id="Rectangle_49" data-name="Rectangle 49" width="9.508" height="4.754" transform="translate(475.221 336.836)" fill="#fff"/>
  <path id="Path_141" data-name="Path 141" d="M304.946,581.733h4.171a.553.553,0,0,1,.553.553v1.831a.553.553,0,0,1-.553.553h-.691v2.743h-2.789V584.67h-.691a.553.553,0,0,1-.553-.553v-1.831a.553.553,0,0,1,.553-.553Z" transform="translate(153.602 -267.131)" fill="#e6e6e6"/>
  <path id="Path_142" data-name="Path 142" d="M298.711,600.159a21.445,21.445,0,0,0,3.731-12.715.452.452,0,0,1,.353-.451V586.2H307.2v.78h.061a.452.452,0,0,1,.451.453c0,.011,0,.022,0,.033a19.572,19.572,0,0,0,3.516,13.016,1.246,1.246,0,0,1,.225.755l-.482,14.9a1.29,1.29,0,0,1-1.279,1.245h-9.965a1.29,1.29,0,0,1-1.28-1.267l-.186-14.468A2.611,2.611,0,0,1,298.711,600.159Z" transform="translate(155.659 -268.8)" fill="#ff5151"/>
  <rect id="Rectangle_50" data-name="Rectangle 50" width="9.508" height="4.754" transform="translate(455.804 336.836)" fill="#fff"/>
  <path id="Path_143" data-name="Path 143" d="M386.833,523.613h8.794a1.166,1.166,0,0,1,1.166,1.166v3.86a1.166,1.166,0,0,1-1.166,1.166h-1.457v5.783H388.29V529.8h-1.457a1.166,1.166,0,0,1-1.166-1.166v-3.86A1.166,1.166,0,0,1,386.833,523.613Z" transform="translate(15.572 -245.416)" fill="#e6e6e6"/>
  <path id="Path_144" data-name="Path 144" d="M373.69,562.459a45.211,45.211,0,0,0,7.865-26.8.953.953,0,0,1,.744-.952v-1.668h9.287v1.645h.128a.953.953,0,0,1,.952.954q0,.035,0,.069a41.26,41.26,0,0,0,7.412,27.44,2.626,2.626,0,0,1,.475,1.592l-1.016,31.414a2.719,2.719,0,0,1-2.7,2.625H375.832a2.72,2.72,0,0,1-2.7-2.671l-.391-30.5A5.5,5.5,0,0,1,373.69,562.459Z" transform="translate(19.907 -248.936)" fill="#ff5151"/>
  <path id="Path_145" data-name="Path 145" d="M380.01,596.668h18.285a1.877,1.877,0,0,1,1.855,2.163l-2.763,17.96H381.52l-3.356-17.9a1.877,1.877,0,0,1,1.845-2.223Z" transform="translate(16.912 -272.711)" fill="#fff"/>
  <path id="Path_146" data-name="Path 146" d="M325.544,298.5h52.42c-3.665-19.814-2.822-43.741,0-69.472h-52.42C328.291,254.759,329.112,278.685,325.544,298.5Z" transform="translate(72.059 -135.352)" fill="#ff5151"/>
  <circle id="Ellipse_28" data-name="Ellipse 28" cx="12.631" cy="12.631" r="12.631" transform="translate(410.866 113.886)" fill="#fff"/>
  <path id="Path_147" data-name="Path 147" d="M248.914,445.709h52.42c-3.665-19.814-2.822-43.741,0-69.472h-52.42C251.661,401.968,252.481,425.895,248.914,445.709Z" transform="translate(196.688 -190.353)" fill="#ff5151"/>
  <circle id="Ellipse_29" data-name="Ellipse 29" cx="12.631" cy="12.631" r="12.631" transform="translate(458.866 206.094)" fill="#fff"/>
  <path id="Path_148" data-name="Path 148" d="M372.933,305.557h52.42c-3.665-19.814-2.822-43.741,0-69.472h-52.42C375.68,261.817,376.5,285.743,372.933,305.557Z" transform="translate(-5.013 -137.989)" fill="#e6e6e6"/>
  <circle id="Ellipse_30" data-name="Ellipse 30" cx="12.631" cy="12.631" r="12.631" transform="translate(381.183 118.307)" fill="#fff"/>
  <path id="Path_149" data-name="Path 149" d="M372.933,300.516h52.42c-3.665-19.814-2.822-43.741,0-69.472h-52.42C375.68,256.775,376.5,280.7,372.933,300.516Z" transform="translate(-5.013 -136.105)" fill="#e6e6e6"/>
  <circle id="Ellipse_31" data-name="Ellipse 31" cx="12.631" cy="12.631" r="12.631" transform="translate(381.183 115.148)" fill="#fff"/>
  <path id="Path_150" data-name="Path 150" d="M372.933,305.557h52.42c-3.665-19.814-2.822-43.741,0-69.472h-52.42C375.68,261.817,376.5,285.743,372.933,305.557Z" transform="translate(-5.013 -137.989)" fill="#ff5151"/>
  <circle id="Ellipse_32" data-name="Ellipse 32" cx="12.631" cy="12.631" r="12.631" transform="translate(381.183 118.307)" fill="#fff"/>
  <rect id="Rectangle_51" data-name="Rectangle 51" width="171.786" height="18.947" transform="translate(355.92 159.358)" fill="#3f3d56"/>
  <rect id="Rectangle_52" data-name="Rectangle 52" width="171.786" height="18.947" transform="translate(355.92 253.461)" fill="#3f3d56"/>
  <rect id="Rectangle_53" data-name="Rectangle 53" width="171.786" height="18.947" transform="translate(355.92 347.565)" fill="#3f3d56"/>
  <path id="Path_151" data-name="Path 151" d="M924.647,705.188l42.8-30.27c-14.434-14.061-27.562-34.082-40.117-56.719l-42.8,30.27C901.631,667.89,916.118,686.951,924.647,705.188Z" transform="translate(-867.556 -280.755)" fill="#ff5151"/>
  <circle id="Ellipse_33" data-name="Ellipse 33" cx="12.631" cy="12.631" r="12.631" transform="translate(44.448 366.942)" fill="#fff"/>
  <path id="Path_152" data-name="Path 152" d="M615.391,536.554h4.7a.623.623,0,0,1,.623.623v2.062a.623.623,0,0,1-.623.623h-.778v3.09h-3.141v-3.09h-.779a.623.623,0,0,1-.623-.623v-2.062a.623.623,0,0,1,.623-.623Z" transform="translate(-351.851 -250.251)" fill="#e6e6e6"/>
  <path id="Path_153" data-name="Path 153" d="M608.369,557.306a24.153,24.153,0,0,0,4.2-14.32.509.509,0,0,1,.4-.508v-.891h4.961v.879H618a.509.509,0,0,1,.508.51c0,.012,0,.025,0,.037a22.041,22.041,0,0,0,3.96,14.659,1.4,1.4,0,0,1,.254.85l-.543,16.782a1.453,1.453,0,0,1-1.44,1.4H609.514a1.453,1.453,0,0,1-1.441-1.427l-.209-16.294A2.94,2.94,0,0,1,608.369,557.306Z" transform="translate(-349.535 -252.131)" fill="#ff5151"/>
  <path id="Path_154" data-name="Path 154" d="M617.408,537.627a1.344,1.344,0,0,0,2.687,0" transform="translate(-352.889 -250.652)" opacity="0.2"/>
  <rect id="Rectangle_54" data-name="Rectangle 54" width="9.474" height="6.316" transform="translate(261.02 308.408)" fill="#fff"/>
  <path id="Path_155" data-name="Path 155" d="M845.868,641.218h8.794a1.166,1.166,0,0,1,1.166,1.166v3.86a1.166,1.166,0,0,1-1.166,1.166H853.2v5.783h-5.879V647.41h-1.457a1.166,1.166,0,0,1-1.166-1.166v-3.86a1.166,1.166,0,0,1,1.166-1.166Z" transform="translate(-730.992 -289.356)" fill="#e6e6e6"/>
  <path id="Path_156" data-name="Path 156" d="M832.725,680.064a45.211,45.211,0,0,0,7.865-26.8.953.953,0,0,1,.744-.951V650.64h9.287v1.645h.128a.953.953,0,0,1,.952.954c0,.023,0,.046,0,.069a41.259,41.259,0,0,0,7.412,27.44,2.626,2.626,0,0,1,.475,1.592l-1.016,31.414a2.719,2.719,0,0,1-2.7,2.625H834.868a2.72,2.72,0,0,1-2.7-2.671l-.391-30.5A5.5,5.5,0,0,1,832.725,680.064Z" transform="translate(-726.657 -292.876)" fill="#ff5151"/>
  <path id="Path_157" data-name="Path 157" d="M849.645,643.226a2.515,2.515,0,1,0,5.031,0" transform="translate(-732.936 -290.106)" opacity="0.2"/>
  <path id="Path_158" data-name="Path 158" d="M839.045,714.273h18.284a1.877,1.877,0,0,1,1.855,2.163l-2.763,17.96H840.555L837.2,716.5a1.877,1.877,0,0,1,1.845-2.223Z" transform="translate(-729.652 -316.651)" fill="#fff"/>
  <path id="Path_159" data-name="Path 159" d="M736.858,715.557h52.42c-3.665-19.814-2.822-43.741,0-69.472h-52.42C739.6,671.816,740.425,695.742,736.858,715.557Z" transform="translate(-596.892 -291.174)" fill="#ff5151"/>
  <circle id="Ellipse_34" data-name="Ellipse 34" cx="12.631" cy="12.631" r="12.631" transform="translate(153.229 375.12)" fill="#fff"/>
  <path id="Path_160" data-name="Path 160" d="M341.5,312.513l-11.768-1.07-7.489-18.186,13.373-7.489Z" transform="translate(12.877 -106.77)" fill="#ffb8b8"/>
  <path id="Path_161" data-name="Path 161" d="M608.47,481.576h0a6.635,6.635,0,0,1,5.764-9.093l18.271-1.089,2.69,8.946-18.809,5.166A6.635,6.635,0,0,1,608.47,481.576Z" transform="translate(-362.091 -225.906)" fill="#ffb8b8"/>
  <path id="Path_162" data-name="Path 162" d="M475.657,456.805l.2-16.787,40.585-6.476,31.266-35.859a10.234,10.234,0,0,1,13.338-1.824h0a10.234,10.234,0,0,1,1.783,15.611l-25.794,31.743Z" transform="translate(-209.66 -197.055)" fill="#575a89"/>
  <path id="Path_163" data-name="Path 163" d="M554.659,687.8h-10.7L517.426,567.828l-27.49,37.062-16.047,80.236H463.726l2.14-86.119L501.7,507h35.3c9.648,17.46,17.216,35.458,8.559,54.025Z" transform="translate(-191.19 -239.21)" fill="#2f2e41"/>
  <path id="Path_164" data-name="Path 164" d="M615.445,799.9a2.792,2.792,0,0,1-2.177,3.582l-26.178,4.646a4.307,4.307,0,0,1-4.886-2.952h0a4.281,4.281,0,0,1,2.094-5.09,40.026,40.026,0,0,0,14.437-12.551c2.877,2.679,6.093,2.427,9.508.453l3.622.453Z" transform="translate(-326.187 -344.023)" fill="#2f2e41"/>
  <path id="Path_165" data-name="Path 165" d="M489.059,799.9a2.792,2.792,0,0,1-2.177,3.582L460.7,808.127a4.307,4.307,0,0,1-4.886-2.952h0a4.281,4.281,0,0,1,2.094-5.09,40.027,40.027,0,0,0,14.437-12.551c2.877,2.679,6.093,2.427,9.508.453l3.622.453Z" transform="translate(-120.636 -344.023)" fill="#2f2e41"/>
  <circle id="Ellipse_35" data-name="Ellipse 35" cx="14.977" cy="14.977" r="14.977" transform="translate(319.875 163.219)" fill="#ffb8b8"/>
  <path id="Path_166" data-name="Path 166" d="M508.006,466.984l-39.048-1.07,11.467-36.092c-7.127-11.425.046-22.838,10.2-34.248l8.024-5.349,12.838-1.07h0a31.515,31.515,0,0,1,8.487,21.955A141.429,141.429,0,0,1,508.006,466.984Z" transform="translate(-159.782 -195.179)" fill="#575a89"/>
  <path id="Path_167" data-name="Path 167" d="M594.787,540.968h0a6.635,6.635,0,0,1,1.722-10.627l16.369-8.19,5.993,7.166-15.261,12.149A6.635,6.635,0,0,1,594.787,540.968Z" transform="translate(-336.276 -244.87)" fill="#ffb8b8"/>
  <path id="Path_168" data-name="Path 168" d="M505.844,492.3l-6.419-15.512,34.765-21.919L548.828,409.6a10.234,10.234,0,0,1,11.545-6.924h0a10.234,10.234,0,0,1,7.78,13.651l-11.227,39.331Z" transform="translate(-227.691 -200.172)" fill="#575a89"/>
  <path id="Path_169" data-name="Path 169" d="M510.209,343.925c0,5.828-3.785,14.853-8.559,18.722-3.212,2.6-7.457,2.493-9.093-1.07-1.679-3.655-7.466-12.247-17.652-17.652-13.578-7.2,4.815-19.531,17.652-17.652C502.2,327.686,510.209,334.176,510.209,343.925Z" transform="translate(-150.751 -171.613)" fill="#2f2e41"/>
  <circle id="Ellipse_36" data-name="Ellipse 36" cx="10.698" cy="10.698" r="10.698" transform="translate(339.666 142.893)" fill="#2f2e41"/>
  <path id="Path_170" data-name="Path 170" d="M490.1,312.322a10.691,10.691,0,0,1,9.9-10.658c-.266-.02-.531-.04-.8-.04a10.7,10.7,0,0,0,0,21.4c.271,0,.537-.021.8-.041a10.691,10.691,0,0,1-9.9-10.658Z" transform="translate(-152.033 -162.475)" fill="#2f2e41"/>
  <ellipse id="Ellipse_37" data-name="Ellipse 37" cx="2.407" cy="3.209" rx="2.407" ry="3.209" transform="translate(332.178 177.126)" fill="#ffb8b8"/>
  <path id="Path_171" data-name="Path 171" d="M467.529,580.943H634.065L669.33,414.232h30.1v-7.48h-36.16L628,573.462H467.529Z" transform="translate(-436.055 -151.972)" fill="#3f3d56"/>
  <circle id="Ellipse_38" data-name="Ellipse 38" cx="16.03" cy="16.03" r="16.03" transform="translate(157.576 427.368)" fill="#3f3d56"/>
  <circle id="Ellipse_39" data-name="Ellipse 39" cx="16.03" cy="16.03" r="16.03" transform="translate(37.886 427.368)" fill="#3f3d56"/>
  <path id="Path_172" data-name="Path 172" d="M719.094,674.425h162.03l28.588-141.28H692.266a7.683,7.683,0,0,0-7.589,8.874l26.83,125.917a7.644,7.644,0,0,0,7.588,6.489Zm160.27-2.137H719.094a5.516,5.516,0,0,1-5.476-4.684l-26.83-125.917a5.544,5.544,0,0,1,5.477-6.4H907.119Z" transform="translate(-684.584 -248.977)" fill="#3f3d56"/>
  <path id="Path_173" data-name="Path 173" d="M596.731,595.031l18.722-139.585-2.108-.348L594.623,594.682Z" transform="translate(-431.69 -170.035)" fill="#3f3d56"/>
  <path id="Path_174" data-name="Path 174" d="M805.519,593.961l2.11-.342L789.453,455.1l-2.11.342Z" transform="translate(-744.58 -170.037)" fill="#3f3d56"/>
  <rect id="Rectangle_55" data-name="Rectangle 55" width="2.137" height="139.585" transform="translate(110.538 285.236)" fill="#3f3d56"/>
  <rect id="Rectangle_56" data-name="Rectangle 56" width="2.137" height="206.89" transform="matrix(-0.002, -1, 1, -0.002, 7.327, 325.275)" fill="#3f3d56"/>
  <rect id="Rectangle_57" data-name="Rectangle 57" width="181.761" height="2.137" transform="matrix(-1, -0.007, 0.007, -1, 203.66, 392.043)" fill="#3f3d56"/>
  <ellipse id="Ellipse_40" data-name="Ellipse 40" cx="11.755" cy="6.412" rx="11.755" ry="6.412" transform="translate(248.411 251.04)" fill="#3f3d56"/>
</svg>
