<svg xmlns="http://www.w3.org/2000/svg" xmlns:xlink="http://www.w3.org/1999/xlink" width="544.778" height="316.337" viewBox="0 0 544.778 316.337">
  <defs>
    <linearGradient id="linear-gradient" x1="0.5" y1="1" x2="0.5" y2="-0.001" gradientUnits="objectBoundingBox">
      <stop offset="0" stop-color="gray" stop-opacity="0.251"/>
      <stop offset="0.54" stop-color="gray" stop-opacity="0.122"/>
      <stop offset="1" stop-color="gray" stop-opacity="0.102"/>
    </linearGradient>
  </defs>
  <g id="undraw_discount_d4bd" transform="translate(0 -0.043)">
    <g id="Group_30" data-name="Group 30" transform="translate(349.868 0.043)" opacity="0.1">
      <ellipse id="Ellipse_646" data-name="Ellipse 646" cx="10.529" cy="13.779" rx="10.529" ry="13.779" transform="translate(40.142 284.103)" fill="#3f3d56"/>
      <path id="Path_944" data-name="Path 944" d="M865.665,595.111a16.6,16.6,0,0,0,2.216-8.422c0-7.626-4.714-13.779-10.529-13.779s-10.524,6.167-10.524,13.779a16.6,16.6,0,0,0,2.2,8.422,17.23,17.23,0,0,0,0,16.839,17.24,17.24,0,0,0,0,16.844,16.6,16.6,0,0,0-2.2,8.422c0,7.626,4.714,13.779,10.524,13.779s10.529-6.168,10.529-13.779a16.6,16.6,0,0,0-2.2-8.422,17.24,17.24,0,0,0,0-16.844,17.23,17.23,0,0,0,0-16.839Z" transform="translate(-806.663 -356.178)" fill="#3f3d56"/>
      <ellipse id="Ellipse_647" data-name="Ellipse 647" cx="10.529" cy="13.779" rx="10.529" ry="13.779" transform="translate(40.142 199.893)" fill="#3f3d56"/>
      <ellipse id="Ellipse_648" data-name="Ellipse 648" cx="10.529" cy="13.779" rx="10.529" ry="13.779" transform="translate(40.142 183.05)" fill="#3f3d56"/>
      <path id="Path_945" data-name="Path 945" d="M852.636,199.756a50.739,50.739,0,0,0,3.918-5.772l-27.644-4.542,29.917.224a50.521,50.521,0,0,0,.953-39.95l-40.141,20.809,37.024-27.2a50.426,50.426,0,1,0-83.289,56.427,50.522,50.522,0,0,0-5.748,9.194l35.9,18.655-38.282-12.869a50.427,50.427,0,0,0,8.1,47.348,50.422,50.422,0,1,0,79.262,0,50.422,50.422,0,0,0,0-62.347Z" transform="translate(-762.558 -118.183)" fill="#ff5151"/>
      <path id="Path_946" data-name="Path 946" d="M762.609,353.923A50.193,50.193,0,0,0,773.4,385.094a50.422,50.422,0,1,0,79.262,0C859.42,376.515,762.609,348.261,762.609,353.923Z" transform="translate(-762.585 -241.175)" opacity="0.1"/>
    </g>
    <g id="Group_31" data-name="Group 31" transform="translate(74.686 107.25)" opacity="0.1">
      <ellipse id="Ellipse_649" data-name="Ellipse 649" cx="6.406" cy="8.389" rx="6.406" ry="8.389" transform="translate(24.151 172.94)" fill="#3f3d56"/>
      <path id="Path_947" data-name="Path 947" d="M247.4,633.427a10.118,10.118,0,0,0,1.339-5.128c0-4.633-2.86-8.389-6.411-8.389s-6.406,3.756-6.406,8.389a10.118,10.118,0,0,0,1.335,5.128,10.514,10.514,0,0,0,0,10.252,10.514,10.514,0,0,0,0,10.252,10.085,10.085,0,0,0-1.335,5.124c0,4.638,2.86,8.393,6.406,8.393s6.411-3.756,6.411-8.393a10.085,10.085,0,0,0-1.339-5.124,10.486,10.486,0,0,0,0-10.252A10.486,10.486,0,0,0,247.4,633.427Z" transform="translate(-211.745 -487.983)" fill="#3f3d56"/>
      <ellipse id="Ellipse_650" data-name="Ellipse 650" cx="6.406" cy="8.389" rx="6.406" ry="8.389" transform="translate(24.151 121.675)" fill="#3f3d56"/>
      <ellipse id="Ellipse_651" data-name="Ellipse 651" cx="6.406" cy="8.389" rx="6.406" ry="8.389" transform="translate(24.151 111.423)" fill="#3f3d56"/>
      <path id="Path_948" data-name="Path 948" d="M191.777,392.757a30.555,30.555,0,0,1-2.383-3.513l16.839-2.764-18.212.138a30.776,30.776,0,0,1-.586-24.308l24.417,12.683-22.53-16.586a30.694,30.694,0,1,1,50.7,34.35,30.659,30.659,0,0,1,3.5,5.591L221.661,409.71l23.307-7.821a30.714,30.714,0,0,1-4.947,28.826,30.694,30.694,0,1,1-48.253,0,30.7,30.7,0,0,1,0-37.958Z" transform="translate(-185.199 -343.114)" fill="#ff5151"/>
      <path id="Path_949" data-name="Path 949" d="M246.588,486.594a30.575,30.575,0,0,1-6.568,18.979,30.694,30.694,0,1,1-48.253,0C187.654,500.373,246.588,483.148,246.588,486.594Z" transform="translate(-185.199 -417.972)" opacity="0.1"/>
    </g>
    <g id="Group_32" data-name="Group 32" transform="translate(208.769 50.262)" opacity="0.1">
      <ellipse id="Ellipse_652" data-name="Ellipse 652" cx="8.574" cy="11.224" rx="8.574" ry="11.224" transform="translate(32.316 231.558)" fill="#3f3d56"/>
      <path id="Path_950" data-name="Path 950" d="M549.67,612.308a13.54,13.54,0,0,0,1.787-6.863c0-6.2-3.813-11.224-8.579-11.224s-8.579,5.028-8.579,11.224a13.5,13.5,0,0,0,1.792,6.863,14.032,14.032,0,0,0,0,13.722,14.022,14.022,0,0,0,0,13.717,13.5,13.5,0,0,0-1.792,6.863c0,6.2,3.842,11.224,8.579,11.224s8.579-5.028,8.579-11.224a13.54,13.54,0,0,0-1.787-6.863,14.051,14.051,0,0,0,0-13.717,14.06,14.06,0,0,0,0-13.722Z" transform="translate(-501.993 -417.549)" fill="#3f3d56"/>
      <ellipse id="Ellipse_653" data-name="Ellipse 653" cx="8.574" cy="11.224" rx="8.574" ry="11.224" transform="translate(32.316 162.953)" fill="#3f3d56"/>
      <ellipse id="Ellipse_654" data-name="Ellipse 654" cx="8.574" cy="11.224" rx="8.574" ry="11.224" transform="translate(32.316 149.231)" fill="#3f3d56"/>
      <path id="Path_951" data-name="Path 951" d="M475.327,290.109a40.944,40.944,0,0,1-3.193-4.7l22.53-3.7-24.365.181a41.156,41.156,0,0,1-.786-32.548l32.7,16.958-30.156-22.163a41.08,41.08,0,1,1,67.828,45.97,41.148,41.148,0,0,1,4.68,7.492L515.316,312.8,546.5,302.31a41.094,41.094,0,0,1-6.62,38.573,41.075,41.075,0,1,1-64.573,0,41.089,41.089,0,0,1,0-50.793Z" transform="translate(-466.519 -223.547)" fill="#ff5151"/>
      <path id="Path_952" data-name="Path 952" d="M548.67,415.825a40.9,40.9,0,0,1-8.789,25.394,41.075,41.075,0,1,1-64.573,0C469.8,434.232,548.67,411.211,548.67,415.825Z" transform="translate(-466.519 -323.864)" opacity="0.1"/>
    </g>
    <path id="Path_953" data-name="Path 953" d="M596.961,739.983c0,3.274-23.936,6.268-63.51,8.579-7.2.415-14.909.81-23.088,1.182q-10.6.477-22.22.9-11.258.4-23.378.744c-25.518.729-53.73,1.254-83.7,1.516q-10.91.1-22.11.153-11.668.052-23.6.048c-144.483,0-261.6-5.867-261.6-13.107s117.12-13.107,261.6-13.107c62.2,0,119.327,1.091,164.225,2.9l4.909.2h.029C561.071,732.39,596.961,736,596.961,739.983Z" transform="translate(-52.183 -436.724)" fill="#3f3d56"/>
    <path id="Path_954" data-name="Path 954" d="M596.961,739.983c0,3.274-23.936,6.268-63.51,8.579-7.2.415-14.909.81-23.088,1.182q-10.6.477-22.22.9-11.258.4-23.378.744c-25.518.729-53.73,1.254-83.7,1.516q-10.91.1-22.11.153-11.668.052-23.6.048c-144.483,0-261.6-5.867-261.6-13.107s117.12-13.107,261.6-13.107c62.2,0,119.327,1.091,164.225,2.9l4.909.2h.029C561.071,732.39,596.961,736,596.961,739.983Z" transform="translate(-52.183 -436.724)" opacity="0.15"/>
    <path id="Path_955" data-name="Path 955" d="M551.711,737.467c0,2.736-23.936,5.243-63.51,7.149-7.192.348-14.909.677-23.083.987q-10.6.4-22.22.753-11.258.334-23.378.624c-25.523.61-53.734,1.049-83.7,1.268q-10.9.081-22.11.124-11.668.043-23.6.043c-144.483,0-261.608-4.9-261.608-10.962S145.625,726.49,290.108,726.49c62.2,0,119.322.91,164.22,2.426l4.909.167h.033C515.845,731.118,551.711,734.116,551.711,737.467Z" transform="translate(-28.5 -436.515)" fill="#3f3d56"/>
    <path id="Path_956" data-name="Path 956" d="M163.048,516.619l-6.568-20.109,157.285-1.721,6.444,19.908Z" transform="translate(-95.482 -315.248)" fill="#3f3d56"/>
    <path id="Path_957" data-name="Path 957" d="M163.048,516.619l-6.568-20.109,157.285-1.721,6.444,19.908Z" transform="translate(-95.482 -315.248)" opacity="0.15"/>
    <path id="Path_958" data-name="Path 958" d="M141.048,516.619l-6.568-20.109,157.285-1.721,6.444,19.908Z" transform="translate(-83.968 -315.248)" fill="#3f3d56"/>
    <path id="Path_959" data-name="Path 959" d="M653.955,330.622q-24.393,0-38.449-19.365T601.45,264.338q0-27.739,13.593-46.823t38.349-19.065q26.252,0,39.56,20.109t13.312,46.547q0,26.248-13.774,45.889T653.955,330.622Zm.477-14.523q16.048,0,23.988-13.989t7.941-35.27q0-23.688-8.126-38.792t-24.927-15.109q-31.934,0-31.934,50.732,0,52.433,33.049,52.428Zm5.357,139.073H636.267L790.254,201.038h23.078Zm136.228,2.607q-24.76,0-38.606-19.541t-13.9-46.923q0-27.553,13.5-46.637t38.444-19.065q26.067,0,39.283,20.109t13.221,46.542q0,26.076-13.684,45.8T796.007,457.78Zm.276-14.894q15.972,0,23.86-13.75t7.888-35.127q0-22.878-7.983-38.373t-24.875-15.519q-32.12,0-32.12,50.732-.01,52.042,33.22,52.038Z" transform="translate(-328.37 -160.15)" fill="#3f3d56"/>
    <path id="Path_960" data-name="Path 960" d="M653.955,330.622q-24.393,0-38.449-19.365T601.45,264.338q0-27.739,13.593-46.823t38.349-19.065q26.252,0,39.56,20.109t13.312,46.547q0,26.248-13.774,45.889T653.955,330.622Zm.477-14.523q16.048,0,23.988-13.989t7.941-35.27q0-23.688-8.126-38.792t-24.927-15.109q-31.934,0-31.934,50.732,0,52.433,33.049,52.428Zm5.357,139.073H636.267L790.254,201.038h23.078Zm136.228,2.607q-24.76,0-38.606-19.541t-13.9-46.923q0-27.553,13.5-46.637t38.444-19.065q26.067,0,39.283,20.109t13.221,46.542q0,26.076-13.684,45.8T796.007,457.78Zm.276-14.894q15.972,0,23.86-13.75t7.888-35.127q0-22.878-7.983-38.373t-24.875-15.519q-32.12,0-32.12,50.732-.01,52.042,33.22,52.038Z" transform="translate(-328.37 -160.15)" fill="#3f3d56"/>
    <path id="Path_961" data-name="Path 961" d="M653.955,330.622q-24.393,0-38.449-19.365T601.45,264.338q0-27.739,13.593-46.823t38.349-19.065q26.252,0,39.56,20.109t13.312,46.547q0,26.248-13.774,45.889T653.955,330.622Zm.477-14.523q16.048,0,23.988-13.989t7.941-35.27q0-23.688-8.126-38.792t-24.927-15.109q-31.934,0-31.934,50.732,0,52.433,33.049,52.428Zm5.357,139.073H636.267L790.254,201.038h23.078Zm136.228,2.607q-24.76,0-38.606-19.541t-13.9-46.923q0-27.553,13.5-46.637t38.444-19.065q26.067,0,39.283,20.109t13.221,46.542q0,26.076-13.684,45.8T796.007,457.78Zm.276-14.894q15.972,0,23.86-13.75t7.888-35.127q0-22.878-7.983-38.373t-24.875-15.519q-32.12,0-32.12,50.732-.01,52.042,33.22,52.038Z" transform="translate(-328.37 -160.15)" opacity="0.15"/>
    <path id="Path_962" data-name="Path 962" d="M622.955,330.622q-24.393,0-38.449-19.365T570.45,264.338q0-27.739,13.593-46.823t38.349-19.065q26.252,0,39.56,20.109t13.312,46.547q0,26.248-13.774,45.889T622.955,330.622Zm.477-14.523q16.048,0,23.988-13.989t7.941-35.27q0-23.688-8.126-38.792t-24.927-15.109q-31.934,0-31.934,50.732,0,52.433,33.049,52.428Zm5.357,139.073H605.267L759.254,201.038h23.078Zm136.228,2.607q-24.761,0-38.606-19.541t-13.9-46.923q0-27.553,13.5-46.637t38.444-19.065q26.066,0,39.283,20.109t13.221,46.542q0,26.076-13.684,45.8T765.007,457.78Zm.276-14.894q15.972,0,23.86-13.75t7.888-35.127q0-22.878-7.983-38.373t-24.884-15.519q-32.12,0-32.12,50.732,0,52.042,33.23,52.038Z" transform="translate(-312.145 -160.15)" fill="#3f3d56"/>
    <path id="Path_963" data-name="Path 963" d="M779.284,662.417c1.964-3.641-.267-8.1-2.831-11.353s-5.691-6.625-5.624-10.767c.1-5.943,6.406-9.456,11.439-12.611a55.8,55.8,0,0,0,10.285-8.265,15.1,15.1,0,0,0,3.16-4.232c1.044-2.326,1.01-4.971.953-7.516q-.329-12.735-1.258-25.432" transform="translate(-417.019 -361.017)" fill="none" stroke="#3f3d56" stroke-miterlimit="10" stroke-width="4"/>
    <path id="Path_964" data-name="Path 964" d="M822.161,571.551a9.261,9.261,0,0,0-4.628-7.6l-2.078,4.108.062-4.976a9.385,9.385,0,0,0-3.055-.367,9.275,9.275,0,1,0,9.7,8.832Z" transform="translate(-434.182 -350.796)" fill="#ff5151"/>
    <path id="Path_965" data-name="Path 965" d="M788.589,698.161a9.27,9.27,0,1,1,.448-7.469l-5.8,4.714,6.387-1.487A9.247,9.247,0,0,1,788.589,698.161Z" transform="translate(-417.148 -414.616)" fill="#ff5151"/>
    <path id="Path_966" data-name="Path 966" d="M787.547,654.814a9.275,9.275,0,0,1-9.7-8.832,9.171,9.171,0,0,1,.8-4.228,9.29,9.29,0,0,1,5.939-5.143l-.052,3.813,2.1-4.156h0A9.276,9.276,0,0,1,787.5,654.8Z" transform="translate(-420.687 -389.29)" fill="#ff5151"/>
    <path id="Path_967" data-name="Path 967" d="M834.783,623.392a9.279,9.279,0,1,1,4.1-17.359l-1.64,4.49,3.375-3.236a9.247,9.247,0,0,1,3.007,6.4,9.053,9.053,0,0,1-.238,2.555A9.28,9.28,0,0,1,834.783,623.392Z" transform="translate(-445.408 -372.848)" fill="#ff5151"/>
    <path id="Path_968" data-name="Path 968" d="M820.917,579.6c-2.14.234-4.218.9-6.368,1.034s-4.509-.381-5.867-2.054a28.345,28.345,0,0,1-1.716-3.017,6.573,6.573,0,0,0-2.336-2.2,9.275,9.275,0,1,0,17.34,6.153C821.618,579.542,821.27,579.566,820.917,579.6Z" transform="translate(-434.187 -356.375)" opacity="0.1"/>
    <path id="Path_969" data-name="Path 969" d="M834.791,629.231A9.285,9.285,0,0,1,825.968,616a6.949,6.949,0,0,1,1.864,1.868,30.518,30.518,0,0,0,1.84,3.065c1.43,1.7,3.913,2.254,6.148,2.154s4.4-.739,6.63-.953c.31-.029.624-.048.953-.057A9.28,9.28,0,0,1,834.791,629.231Z" transform="translate(-445.415 -378.687)" opacity="0.1"/>
    <path id="Path_970" data-name="Path 970" d="M787.547,660.849a9.275,9.275,0,0,1-9.7-8.832,9.171,9.171,0,0,1,.8-4.228,7.464,7.464,0,0,1,1.959,1.906,31.744,31.744,0,0,0,2.016,3.127c1.563,1.74,4.194,2.355,6.563,2.3s4.509-.61,6.792-.786A9.28,9.28,0,0,1,787.547,660.849Z" transform="translate(-420.687 -395.325)" opacity="0.1"/>
    <path id="Path_971" data-name="Path 971" d="M788.555,704.689a9.275,9.275,0,0,1-16.911-7.569,9.344,9.344,0,0,1,2.035,1.816,36.374,36.374,0,0,0,2.483,3.3c1.906,1.859,4.957,2.626,7.683,2.7a39.483,39.483,0,0,0,4.709-.243Z" transform="translate(-417.115 -421.143)" opacity="0.1"/>
    <path id="Path_972" data-name="Path 972" d="M1080.284,661.417c1.964-3.641-.267-8.1-2.831-11.353s-5.691-6.625-5.624-10.767c.1-5.943,6.406-9.456,11.439-12.611a55.8,55.8,0,0,0,10.285-8.265,15.1,15.1,0,0,0,3.16-4.232c1.044-2.326,1.01-4.971.953-7.516q-.329-12.735-1.258-25.432" transform="translate(-574.556 -360.494)" fill="none" stroke="#3f3d56" stroke-miterlimit="10" stroke-width="4"/>
    <path id="Path_973" data-name="Path 973" d="M1123.161,570.551a9.26,9.26,0,0,0-4.628-7.6l-2.078,4.108.062-4.976a9.383,9.383,0,0,0-3.055-.367,9.275,9.275,0,1,0,9.7,8.832Z" transform="translate(-591.719 -350.272)" fill="#ff5151"/>
    <path id="Path_974" data-name="Path 974" d="M1089.589,697.161a9.27,9.27,0,1,1,.448-7.469l-5.8,4.714,6.387-1.487A9.247,9.247,0,0,1,1089.589,697.161Z" transform="translate(-574.685 -414.092)" fill="#ff5151"/>
    <path id="Path_975" data-name="Path 975" d="M1088.547,653.814a9.275,9.275,0,0,1-9.7-8.832,9.169,9.169,0,0,1,.8-4.228,9.289,9.289,0,0,1,5.939-5.143l-.052,3.813,2.1-4.156h.024a9.276,9.276,0,0,1,.867,18.531Z" transform="translate(-578.224 -388.766)" fill="#ff5151"/>
    <path id="Path_976" data-name="Path 976" d="M1135.783,622.392a9.279,9.279,0,1,1,4.1-17.359l-1.64,4.49,3.374-3.236a9.246,9.246,0,0,1,3.007,6.4,9.063,9.063,0,0,1-.238,2.555,9.28,9.28,0,0,1-8.6,7.149Z" transform="translate(-602.945 -372.324)" fill="#ff5151"/>
    <path id="Path_977" data-name="Path 977" d="M1121.917,578.6c-2.14.234-4.218.9-6.368,1.034s-4.509-.381-5.867-2.054a28.334,28.334,0,0,1-1.716-3.017,6.572,6.572,0,0,0-2.335-2.2,9.275,9.275,0,1,0,17.34,6.153C1122.618,578.542,1122.27,578.566,1121.917,578.6Z" transform="translate(-591.724 -355.852)" opacity="0.1"/>
    <path id="Path_978" data-name="Path 978" d="M1135.791,628.231A9.285,9.285,0,0,1,1126.968,615a6.946,6.946,0,0,1,1.863,1.868,30.561,30.561,0,0,0,1.84,3.065c1.43,1.7,3.913,2.254,6.148,2.154s4.4-.739,6.63-.953c.31-.029.624-.048.953-.057A9.28,9.28,0,0,1,1135.791,628.231Z" transform="translate(-602.952 -378.163)" opacity="0.1"/>
    <path id="Path_979" data-name="Path 979" d="M1088.547,659.849a9.275,9.275,0,0,1-9.7-8.832,9.169,9.169,0,0,1,.8-4.228,7.463,7.463,0,0,1,1.959,1.906,31.74,31.74,0,0,0,2.016,3.127c1.563,1.74,4.194,2.355,6.563,2.3,2.3-.048,4.509-.61,6.792-.786a9.28,9.28,0,0,1-8.431,6.515Z" transform="translate(-578.224 -394.801)" opacity="0.1"/>
    <path id="Path_980" data-name="Path 980" d="M1089.555,703.689a9.275,9.275,0,0,1-16.911-7.569,9.338,9.338,0,0,1,2.035,1.816,36.406,36.406,0,0,0,2.483,3.3c1.906,1.859,4.957,2.626,7.683,2.7A39.483,39.483,0,0,0,1089.555,703.689Z" transform="translate(-574.652 -420.62)" opacity="0.1"/>
    <path id="Path_981" data-name="Path 981" d="M119.317,648.417c-1.964-3.641.267-8.1,2.831-11.353s5.691-6.625,5.624-10.767c-.1-5.943-6.406-9.456-11.439-12.611a55.8,55.8,0,0,1-10.285-8.265,15.1,15.1,0,0,1-3.16-4.232c-1.044-2.326-1.01-4.971-.953-7.516q.329-12.735,1.258-25.432" transform="translate(-66.922 -353.69)" fill="none" stroke="#3f3d56" stroke-miterlimit="10" stroke-width="4"/>
    <path id="Path_982" data-name="Path 982" d="M84.469,557.551a9.261,9.261,0,0,1,4.628-7.6l2.078,4.108-.062-4.976a9.385,9.385,0,0,1,3.055-.367,9.275,9.275,0,1,1-9.7,8.832Z" transform="translate(-57.787 -343.469)" fill="#ff5151"/>
    <path id="Path_983" data-name="Path 983" d="M118.039,684.161a9.27,9.27,0,1,0-.448-7.469l5.8,4.714L117,679.919a9.247,9.247,0,0,0,1.039,4.242Z" transform="translate(-74.819 -407.288)" fill="#ff5151"/>
    <path id="Path_984" data-name="Path 984" d="M119.128,640.814a9.275,9.275,0,0,0,9.7-8.832,9.17,9.17,0,0,0-.8-4.228,9.289,9.289,0,0,0-5.939-5.143l.052,3.813-2.1-4.156h0a9.276,9.276,0,0,0-.867,18.531Z" transform="translate(-71.327 -381.962)" fill="#ff5151"/>
    <path id="Path_985" data-name="Path 985" d="M71.829,609.393a9.279,9.279,0,1,0-4.075-17.359l1.64,4.49L66,593.3a9.246,9.246,0,0,0-3.007,6.387,9.055,9.055,0,0,0,.238,2.555A9.28,9.28,0,0,0,71.829,609.393Z" transform="translate(-46.545 -365.522)" fill="#ff5151"/>
    <path id="Path_986" data-name="Path 986" d="M85.943,565.6c2.14.234,4.218.9,6.368,1.034s4.509-.381,5.867-2.054a28.341,28.341,0,0,0,1.716-3.017,6.573,6.573,0,0,1,2.335-2.2,9.275,9.275,0,1,1-17.339,6.153C85.243,565.542,85.591,565.566,85.943,565.6Z" transform="translate(-58.013 -349.048)" opacity="0.1"/>
    <path id="Path_987" data-name="Path 987" d="M72.093,615.231A9.285,9.285,0,0,0,80.915,602a6.949,6.949,0,0,0-1.864,1.868,30.5,30.5,0,0,1-1.84,3.065c-1.43,1.7-3.913,2.254-6.148,2.154s-4.4-.739-6.63-.953c-.31-.029-.624-.048-.953-.057A9.28,9.28,0,0,0,72.093,615.231Z" transform="translate(-46.808 -371.359)" opacity="0.1"/>
    <path id="Path_988" data-name="Path 988" d="M119.531,646.849a9.275,9.275,0,0,0,9.7-8.832,9.17,9.17,0,0,0-.8-4.228,7.464,7.464,0,0,0-1.959,1.906,31.744,31.744,0,0,1-2.016,3.127c-1.563,1.74-4.194,2.354-6.563,2.3-2.3-.048-4.509-.61-6.792-.786a9.28,9.28,0,0,0,8.431,6.516Z" transform="translate(-71.731 -387.998)" opacity="0.1"/>
    <path id="Path_989" data-name="Path 989" d="M119.18,690.689a9.275,9.275,0,0,0,16.911-7.569,9.343,9.343,0,0,0-2.035,1.816,36.375,36.375,0,0,1-2.483,3.3c-1.906,1.859-4.957,2.626-7.683,2.7A39.484,39.484,0,0,1,119.18,690.689Z" transform="translate(-75.96 -413.816)" opacity="0.1"/>
    <path id="Path_990" data-name="Path 990" d="M591.026,619.491a7.4,7.4,0,0,0-2.945-5.967,8.648,8.648,0,0,0-7.24-8.493,8.641,8.641,0,0,0-5.758-6.444h0a7.315,7.315,0,0,0-1.072-.253h-.1l-.186-.024h-.982a8.479,8.479,0,0,0-8.193,7.249c-2.645-.61-5.071.181-5.505,1.854a2.265,2.265,0,0,0,.072,1.339A5.8,5.8,0,0,0,563,611.9l.257.076c.129.038.257.067.386.1h.086a6.673,6.673,0,0,0,2.912,8.727,1.515,1.515,0,0,0-.172.11,2.383,2.383,0,0,0-.572.8,11.611,11.611,0,0,0-1.106,2.664c-.191.8-.224,1.63-.477,2.416-.434,1.43-1.549,2.683-1.678,4.2-.057.677.052,1.473-.429,1.935a3.151,3.151,0,0,1-.381.281,2.945,2.945,0,0,0-.839.877,2.8,2.8,0,0,1-.558.772c-.434.329-1.149.3-1.363.8s.338,1.1.21,1.654c-.1.448-.6.653-.953.953a3.38,3.38,0,0,0-.81,1.539,4.928,4.928,0,0,1-4.066-1.034,7.63,7.63,0,0,1,.419,1.52,6.408,6.408,0,0,0-2.193-1.1,7,7,0,0,1-2.335-1.735l1.249-.172-5.529-8.389-1.63-.334,1.463,2.807a.877.877,0,0,0-.477.6,2.555,2.555,0,0,0-.057.953,17.625,17.625,0,0,0,.376,2.235l.424,1.973a5.143,5.143,0,0,0,.138.548,5.558,5.558,0,0,0-1.64.186,14.4,14.4,0,0,0-3.4-.805,1.734,1.734,0,0,0-.767.038,1.86,1.86,0,0,0-.715.581,22.88,22.88,0,0,0-2.526,3.556c-2.969,5.167-6.935,9.675-10.648,14.346-2.564,1.044-5.148,2.035-7.736,3.017l-5.562,2.121a8.354,8.354,0,0,1-3.446.782c-.534-.033-1.182-.114-1.482.338a2.861,2.861,0,0,0-.338.724c-.2,0-.391.048-.572.057h-.033a6.6,6.6,0,0,0-1.335-2.455.829.829,0,0,0-.629.477c-.133.248-.215.52-.367.748-.3.438-.82.653-1.192,1.025s-.605.953-1.006,1.315a3.993,3.993,0,0,1-1.906.739,12.033,12.033,0,0,0-2.96,1.125,5.068,5.068,0,0,1-1.1.505,4.129,4.129,0,0,1-1.282.043l-2.945-.215a2.3,2.3,0,0,0-.786.033,1.463,1.463,0,0,0-.953,1.511,2.35,2.35,0,0,0,.929,1.621,6.2,6.2,0,0,0,1.678.872,48.719,48.719,0,0,0,7.888,2.311v.6a13.379,13.379,0,0,0,6.01,1.43.9.9,0,0,0,.448-.081,1,1,0,0,0,.377-.591,24.308,24.308,0,0,0,1.177-5.772h0a2.971,2.971,0,0,0,1.063-.272c1.015-.276,2.021.419,3.065.534,1.287.138,2.483-.61,3.7-1.072.176-.067.353-.124.529-.181a5.925,5.925,0,0,1-1.215,1.177c-.505.362-1.072.629-1.568,1.006a10.428,10.428,0,0,1-1.32,1.025,7.966,7.966,0,0,1-1.015.391,6.887,6.887,0,0,0-1.43.72,2.974,2.974,0,0,0-.991.953,1.3,1.3,0,0,0,.887,2.03,4.088,4.088,0,0,0,1.206.033c1.592-.119,3.179-.267,4.766-.41a13.338,13.338,0,0,0,2-.286c.348-.086.691-.2,1.039-.291a8.4,8.4,0,0,1,1.816-.272,1.506,1.506,0,0,1,.529.052c.372.119.634.477,1.01.572a1.559,1.559,0,0,0,.72-.1,16.528,16.528,0,0,1,3.536-.376c.52-.029,1.13-.129,1.373-.61.3-.6-.2-1.263-.4-1.906a5.742,5.742,0,0,1-.162-1.249,7.789,7.789,0,0,0-.877-2.969,8.039,8.039,0,0,1-.653-1.354,34.446,34.446,0,0,0,6.5-3.3,11.779,11.779,0,0,1,3.708-1.783,9.956,9.956,0,0,1,4.657.539,104.749,104.749,0,0,1,10.672,3.722,53.007,53.007,0,0,0,5.043,1.906,7.846,7.846,0,0,0,1.787,1.744,8.258,8.258,0,0,0,3.884,1.058,50.989,50.989,0,0,0,5.462.2,9.229,9.229,0,0,0,4.07-.753,4.713,4.713,0,0,0,.853-.562,3.376,3.376,0,0,0,2.679-.991,6.483,6.483,0,0,0,2.049-3.217c.438-1.721.1-3.727,1.158-5.133.281-.376.648-.682.925-1.063a2.859,2.859,0,0,0,.477-1.73l.048-.071a6.429,6.429,0,0,0,.477-1.735,9.914,9.914,0,0,1,.477-1.368,41.341,41.341,0,0,0,1.4-4.066,22.335,22.335,0,0,0,.648-2.788c.114-.753.181-1.511.243-2.269a13.689,13.689,0,0,1,.686-3.484,28.464,28.464,0,0,0,1.578-8.35v-.167a5.591,5.591,0,0,0,4.981-5.643,5.977,5.977,0,0,0-.515-2.435A7.56,7.56,0,0,0,591.026,619.491ZM564.073,652.24c.081.291.176.581.272.872-.439-.434-.872-.882-1.316-1.311.176.052.353.11.524.172a3.142,3.142,0,0,1,.524.267Zm-2.135-1.43c-2.6-2.259-5.615-4.013-8.279-6.2,1.43.72,2.86,1.554,4.29,2.355q2.5,1.43,5.052,2.736a4.108,4.108,0,0,1-1.049,1.087Zm1.111-5.691.124-.129v.891c-.234-.076-.477-.153-.7-.238a5.9,5.9,0,0,0,.581-.543Zm-22.911,6.12a21.6,21.6,0,0,0,2.779-3.961c1.029,1.806,2.707,3.108,4.137,4.618-2.3-.324-4.6-.577-6.911-.677Z" transform="translate(-270.022 -369.428)" fill="url(#linear-gradient)"/>
    <path id="Path_991" data-name="Path 991" d="M574.53,545.12l1.644.334,5.6,8.274-2.474.334Z" transform="translate(-300.697 -285.282)" fill="#2f2e41"/>
    <path id="Path_992" data-name="Path 992" d="M519.48,733.586a32.58,32.58,0,0,0,1.635,4.29,39.627,39.627,0,0,0,5.462-1.559,14.87,14.87,0,0,0-1.134-1.539,5.352,5.352,0,0,0-1.544-1.187,4.2,4.2,0,0,0-1.873-.029Q520.753,733.61,519.48,733.586Z" transform="translate(-285.469 -440.165)" fill="#fbbebe"/>
    <path id="Path_993" data-name="Path 993" d="M508.466,733.231a3.429,3.429,0,0,1-1.868-2.126,6.907,6.907,0,0,0-1.4-2.545.834.834,0,0,0-.629.477c-.138.238-.219.51-.376.739-.3.429-.82.639-1.2,1.006s-.61.925-1.015,1.292a4.036,4.036,0,0,1-1.906.734,12.085,12.085,0,0,0-2.984,1.106,5.1,5.1,0,0,1-1.106.477,4.188,4.188,0,0,1-1.292.043l-2.969-.214a2.315,2.315,0,0,0-.791.038,1.43,1.43,0,0,0-.953,1.487,2.307,2.307,0,0,0,.953,1.6,6.328,6.328,0,0,0,1.687.858,50.866,50.866,0,0,0,7.96,2.273v.586a13.779,13.779,0,0,0,6.058,1.43.953.953,0,0,0,.477-.081.992.992,0,0,0,.381-.582,23.44,23.44,0,0,0,1.234-6.453,4.844,4.844,0,0,0-.124-1.659c-.162-.534.391-.31-.124-.52" transform="translate(-270.027 -437.598)" fill="#2f2e41"/>
    <path id="Path_994" data-name="Path 994" d="M584.056,712.3c-8.8.534-17.5-2.049-26.314-2.326a13.154,13.154,0,0,0-3.27.21,16.066,16.066,0,0,0-3.241,1.258c-4.723,2.2-9.613,4.018-14.5,5.839l-5.605,2.088a8.723,8.723,0,0,1-3.479.767c-.534-.033-1.187-.114-1.492.334-.91,1.349-.477,3.336.124,4.852.2.477.524,1.025,1.049,1.082a3.092,3.092,0,0,0,1.072-.272c1.02-.272,2.04.415,3.089.524,1.3.138,2.507-.6,3.732-1.053,2.03-.748,4.251-.724,6.387-1.082a28.539,28.539,0,0,0,10.009-4.156,11.747,11.747,0,0,1,3.737-1.754,10.226,10.226,0,0,1,4.695.529,108.241,108.241,0,0,1,10.757,3.665,49.574,49.574,0,0,0,5.624,2.049,20.333,20.333,0,0,0,12.6-.734c1.43-.558,2.936-1.539,3.017-3.06.048-.867-.624-1.63-1.072-2.383-.291-.477-.577-.953-.891-1.406C588.569,715.059,586.729,712.137,584.056,712.3Z" transform="translate(-288.689 -427.858)" fill="#2f2e41"/>
    <path id="Path_995" data-name="Path 995" d="M584.056,712.3c-8.8.534-17.5-2.049-26.314-2.326a13.154,13.154,0,0,0-3.27.21,16.066,16.066,0,0,0-3.241,1.258c-4.723,2.2-9.613,4.018-14.5,5.839l-5.605,2.088a8.723,8.723,0,0,1-3.479.767c-.534-.033-1.187-.114-1.492.334-.91,1.349-.477,3.336.124,4.852.2.477.524,1.025,1.049,1.082a3.092,3.092,0,0,0,1.072-.272c1.02-.272,2.04.415,3.089.524,1.3.138,2.507-.6,3.732-1.053,2.03-.748,4.251-.724,6.387-1.082a28.539,28.539,0,0,0,10.009-4.156,11.747,11.747,0,0,1,3.737-1.754,10.226,10.226,0,0,1,4.695.529,108.241,108.241,0,0,1,10.757,3.665,49.574,49.574,0,0,0,5.624,2.049,20.333,20.333,0,0,0,12.6-.734c1.43-.558,2.936-1.539,3.017-3.06.048-.867-.624-1.63-1.072-2.383-.291-.477-.577-.953-.891-1.406C588.569,715.059,586.729,712.137,584.056,712.3Z" transform="translate(-288.689 -427.858)" opacity="0.1"/>
    <path id="Path_996" data-name="Path 996" d="M554.93,730.6q2.069.7,4.166,1.3c.786-1.292,2.254-2.188,2.588-3.66a.342.342,0,0,0,0-.2.353.353,0,0,0-.157-.143,7.792,7.792,0,0,0-3.265-.953c-.906-.057-1.315.887-1.725,1.549C556.393,728.763,555.3,730.727,554.93,730.6Z" transform="translate(-304.022 -436.753)" fill="#fbbebe"/>
    <path id="Path_997" data-name="Path 997" d="M544.061,730.331a3,3,0,0,1-2.026-1.33c-.2-.338-.4-.8-.791-.772s-.524.453-.605.81a23.153,23.153,0,0,1-1.139,3.913,7.335,7.335,0,0,1-2.435,3.2c-.51.353-1.077.62-1.578.991a10.445,10.445,0,0,1-1.335,1.01,7.524,7.524,0,0,1-1.025.381,7.035,7.035,0,0,0-1.463.71,2.978,2.978,0,0,0-1,.953,1.282,1.282,0,0,0,.867,2.007,4.323,4.323,0,0,0,1.215.029c1.606-.119,3.208-.262,4.809-.405a13.665,13.665,0,0,0,2.016-.276c.353-.086.7-.2,1.044-.291a8.832,8.832,0,0,1,1.835-.267,1.555,1.555,0,0,1,.534.052c.372.119.634.477,1.015.562a1.573,1.573,0,0,0,.724-.1,17.162,17.162,0,0,1,3.565-.372c.524-.029,1.144-.129,1.382-.6.3-.586-.2-1.244-.4-1.873a5.88,5.88,0,0,1-.167-1.23,7.487,7.487,0,0,0-.882-2.922c-.41-.753-.953-1.582-.682-2.383a2.087,2.087,0,0,0,.272-.815C547.755,730.026,544.785,730.5,544.061,730.331Z" transform="translate(-291.213 -437.424)" fill="#2f2e41"/>
    <path id="Path_998" data-name="Path 998" d="M612.349,676.76a6.9,6.9,0,0,1-3.508-3.484c-.143-.334-.267-.682-.405-1.02a7.8,7.8,0,0,0-2.1-2.907,1,1,0,0,0-.777-.329.829.829,0,0,0-.572.61,2.5,2.5,0,0,0-.062.953,17.943,17.943,0,0,0,.381,2.2l.429,1.945a3.811,3.811,0,0,0,.267.867,3.021,3.021,0,0,0,.715.853c.391.362.786.71,1.187,1.049a4.2,4.2,0,0,0,.72.524,4.413,4.413,0,0,0,1.339.391,11.548,11.548,0,0,1,5,1.906s0-1.3-.033-1.43a1.906,1.906,0,0,0-.372-1.044A6.3,6.3,0,0,0,612.349,676.76Z" transform="translate(-330.18 -406.436)" fill="#fbbebe"/>
    <path id="Path_999" data-name="Path 999" d="M612.349,676.76a6.9,6.9,0,0,1-3.508-3.484c-.143-.334-.267-.682-.405-1.02a7.8,7.8,0,0,0-2.1-2.907,1,1,0,0,0-.777-.329.829.829,0,0,0-.572.61,2.5,2.5,0,0,0-.062.953,17.943,17.943,0,0,0,.381,2.2l.429,1.945a3.811,3.811,0,0,0,.267.867,3.021,3.021,0,0,0,.715.853c.391.362.786.71,1.187,1.049a4.2,4.2,0,0,0,.72.524,4.413,4.413,0,0,0,1.339.391,11.548,11.548,0,0,1,5,1.906s0-1.3-.033-1.43a1.906,1.906,0,0,0-.372-1.044A6.3,6.3,0,0,0,612.349,676.76Z" transform="translate(-330.18 -406.436)" opacity="0.1"/>
    <ellipse id="Ellipse_655" data-name="Ellipse 655" cx="2.14" cy="2.154" rx="2.14" ry="2.154" transform="translate(297.95 251.145)" fill="#2f2e41"/>
    <path id="Path_1000" data-name="Path 1000" d="M639.047,646.745a2.384,2.384,0,0,0-1.692.243,2.279,2.279,0,0,0-.577.791,11.243,11.243,0,0,0-1.115,2.621c-.191.786-.224,1.606-.477,2.383-.438,1.43-1.563,2.645-1.692,4.137-.057.667.052,1.454-.434,1.906a2.8,2.8,0,0,1-.386.272,2.926,2.926,0,0,0-.844.868,2.753,2.753,0,0,1-.6.825c-.438.324-1.158.291-1.373.791s.338,1.082.21,1.625c-.1.443-.6.648-.953.953a3.3,3.3,0,0,0-.815,1.521,5.048,5.048,0,0,1-4.094-1.025,12.907,12.907,0,0,1,.634,4.685,1.936,1.936,0,0,1-.377,1.43,24.222,24.222,0,0,1,5.028.872,3.451,3.451,0,0,0,2.192,0,3.621,3.621,0,0,0,1.006-.8,6.383,6.383,0,0,0,2.073-3.189,17.326,17.326,0,0,0,.038-2.169,12.437,12.437,0,0,1,.548-2.626,30.721,30.721,0,0,0,.953-5.41c.1-1.13,1.072-2.035,1.587-3.046a15.049,15.049,0,0,0,2.03-6.02C639.991,647.688,639.753,646.835,639.047,646.745Z" transform="translate(-340.282 -394.747)" fill="#2f2e41"/>
    <path id="Path_1001" data-name="Path 1001" d="M639.047,646.745a2.384,2.384,0,0,0-1.692.243,2.279,2.279,0,0,0-.577.791,11.243,11.243,0,0,0-1.115,2.621c-.191.786-.224,1.606-.477,2.383-.438,1.43-1.563,2.645-1.692,4.137-.057.667.052,1.454-.434,1.906a2.8,2.8,0,0,1-.386.272,2.926,2.926,0,0,0-.844.868,2.753,2.753,0,0,1-.6.825c-.438.324-1.158.291-1.373.791s.338,1.082.21,1.625c-.1.443-.6.648-.953.953a3.3,3.3,0,0,0-.815,1.521,5.048,5.048,0,0,1-4.094-1.025,12.907,12.907,0,0,1,.634,4.685,1.936,1.936,0,0,1-.377,1.43,24.222,24.222,0,0,1,5.028.872,3.451,3.451,0,0,0,2.192,0,3.621,3.621,0,0,0,1.006-.8,6.383,6.383,0,0,0,2.073-3.189,17.326,17.326,0,0,0,.038-2.169,12.437,12.437,0,0,1,.548-2.626,30.721,30.721,0,0,0,.953-5.41c.1-1.13,1.072-2.035,1.587-3.046a15.049,15.049,0,0,0,2.03-6.02C639.991,647.688,639.753,646.835,639.047,646.745Z" transform="translate(-340.282 -394.747)" opacity="0.1"/>
    <path id="Path_1002" data-name="Path 1002" d="M602.844,698.879c-1.835-.872-3.174-2.5-4.657-3.889-2.831-2.66-6.291-4.537-9.266-7.03a59.443,59.443,0,0,0-5.9-4.952,14.654,14.654,0,0,0-6.32-2.216,1.755,1.755,0,0,0-.772.038,1.856,1.856,0,0,0-.72.572,22.464,22.464,0,0,0-2.55,3.5c-3.77,6.4-9.122,11.777-13.56,17.73a.8.8,0,0,0-.052,1.077l.9,1.768c.505.987,1.315,2.14,2.383,1.945a2.644,2.644,0,0,0,1.263-.805l4.051-3.875,4.247-4.061c2.488-2.383,5.019-4.814,6.644-7.855,1.268,2.2,3.518,3.637,5.062,5.653.586.763,1.063,1.606,1.587,2.416.844,1.3,1.8,2.521,2.75,3.737l4.876,6.22a9.434,9.434,0,0,0,2.254,2.288,8.652,8.652,0,0,0,3.918,1.044,50.469,50.469,0,0,0,5.505.2,9.446,9.446,0,0,0,4.1-.739,3.775,3.775,0,0,0,2.226-3.3,4.9,4.9,0,0,0-.7-2.064A16.268,16.268,0,0,0,602.844,698.879Z" transform="translate(-306.08 -412.583)" fill="#2f2e41"/>
    <ellipse id="Ellipse_656" data-name="Ellipse 656" cx="1.644" cy="1.654" rx="1.644" ry="1.654" transform="translate(299.761 253.137)" fill="#e8e8f0"/>
    <path id="Path_1003" data-name="Path 1003" d="M657.644,644.387a3.146,3.146,0,0,1,.181,2.383,9.212,9.212,0,0,1-1.058,2.192,10.921,10.921,0,0,1-1.377,1.964,14.126,14.126,0,0,0,7.245-2.083,10.4,10.4,0,0,0,4.571-3.985,2.116,2.116,0,0,1-1.682-.31,6.3,6.3,0,0,1-1.292-1.2l-1.273-1.43a5.722,5.722,0,0,1-.786-1.034,2.859,2.859,0,0,1-.338-1.663,9.536,9.536,0,0,1-1.687,1.4c-.91.6-1.906,1.025-2.826,1.611-.324.21-1.044.548-.858.953S657.387,643.929,657.644,644.387Z" transform="translate(-356.601 -390.839)" fill="#fbbebe"/>
    <path id="Path_1004" data-name="Path 1004" d="M657.644,644.387a3.146,3.146,0,0,1,.181,2.383,9.212,9.212,0,0,1-1.058,2.192,10.921,10.921,0,0,1-1.377,1.964,14.126,14.126,0,0,0,7.245-2.083,10.4,10.4,0,0,0,4.571-3.985,2.116,2.116,0,0,1-1.682-.31,6.3,6.3,0,0,1-1.292-1.2l-1.273-1.43a5.722,5.722,0,0,1-.786-1.034,2.859,2.859,0,0,1-.338-1.663,9.536,9.536,0,0,1-1.687,1.4c-.91.6-1.906,1.025-2.826,1.611-.324.21-1.044.548-.858.953S657.387,643.929,657.644,644.387Z" transform="translate(-356.601 -390.839)" opacity="0.1"/>
    <path id="Path_1005" data-name="Path 1005" d="M649.147,650.272a2.149,2.149,0,0,0,0,2.483c.072.091.343.658.477.663a.434.434,0,0,0,.291-.148,20.217,20.217,0,0,0,1.611-1.906,3.555,3.555,0,0,1,2.049-1.344,4.484,4.484,0,0,1,2.826.877,2.7,2.7,0,0,1,.953.791,2.6,2.6,0,0,1,.319,1.077,50.424,50.424,0,0,1,.286,6.844,26.329,26.329,0,0,1-.324,4.923c-.162.839-.405,1.659-.52,2.507a16.858,16.858,0,0,0-.1,2.25v3.146a7.985,7.985,0,0,0,.124,1.721,21,21,0,0,0,.691,2,13.162,13.162,0,0,1,.477,2.383l.429,3.255a3.975,3.975,0,0,1-.386,2.974c-.276.377-.648.672-.953,1.044-1.072,1.363-.715,3.341-1.192,5.033a6.372,6.372,0,0,1-2.069,3.17,3.347,3.347,0,0,1-2.721.953c-1.32-.248-2.116-1.625-2.478-2.926s-.477-2.721-1.273-3.813a10.056,10.056,0,0,0-2.517-2.107,4.364,4.364,0,0,1-1.964-2.555c-.086-.477-.033-.953-.081-1.43A3.408,3.408,0,0,0,641,679.369c-.677-.262-1.516-.357-1.906-.953a4.59,4.59,0,0,0,1.983-2.664,13.681,13.681,0,0,0,.477-3.336l.229-3.784a12.532,12.532,0,0,1,.891-4.89c.334-.677.748-1.315,1.091-1.987a22.06,22.06,0,0,0,1.172-2.917c.539-1.549,1.082-3.1,1.563-4.671a9.252,9.252,0,0,1,.858-2.178C647.8,651.273,648.384,650.415,649.147,650.272Z" transform="translate(-348.07 -396.477)" fill="#e8e8f0"/>
    <path id="Path_1006" data-name="Path 1006" d="M642.443,674.149l1,.033.215-1.511a3.256,3.256,0,0,1,.21-.882,5.619,5.619,0,0,1,.577-.844c.987-1.392.915-3.241,1.158-4.933a24.52,24.52,0,0,1,2.2-6.449l1.945-4.332a6.235,6.235,0,0,0,.415-1.111,6.089,6.089,0,0,0,.119-1.282c0-.667.219-3.1.234-3.775,0-.248-.543-.11-.658-.329-.243-.477-.577.82-1.034,1.106a2.535,2.535,0,0,0-.9,1.311c-.419,1.091-.677,2.24-1.068,3.336a6.857,6.857,0,0,1-1.816,2.95c-.4.353-.858.629-1.234,1-1.211,1.2-1.325,3.084-1.368,4.766C642.415,664.25,642.219,674.149,642.443,674.149Z" transform="translate(-349.769 -395.765)" fill="#2f2e41"/>
    <path id="Path_1007" data-name="Path 1007" d="M662.778,646.669a3.467,3.467,0,0,0-1.778,2.45,11.99,11.99,0,0,1-.91,3c-1.22,2.126-4.333,2.745-5.2,5.043a9.221,9.221,0,0,0-.348,2.383c-.152,1.644-.7,3.236-.858,4.881a21.516,21.516,0,0,0,.091,3.837l1.091,12.978a17.158,17.158,0,0,1-.329,5.719,5.5,5.5,0,0,0,3.27-.539c1.025-.477,1.959-1.106,2.941-1.649,1.692-.953,3.56-1.6,5.038-2.86a2.99,2.99,0,0,0,.682-.748,6.437,6.437,0,0,0,.477-1.711,9.64,9.64,0,0,1,.477-1.344,39.9,39.9,0,0,0,1.43-4,21.552,21.552,0,0,0,.653-2.75c.119-.739.181-1.487.248-2.231a13.145,13.145,0,0,1,.691-3.432,27.513,27.513,0,0,0,1.587-8.222,4.117,4.117,0,0,0-.081-1.211,6.48,6.48,0,0,0-.658-1.373c-.453-.853-.724-1.792-1.153-2.655a12.92,12.92,0,0,0-4.452-4.68C664.775,646.95,663.77,646.292,662.778,646.669Z" transform="translate(-355.686 -394.68)" fill="#2f2e41"/>
    <path id="Path_1008" data-name="Path 1008" d="M612.068,686.438a7.816,7.816,0,0,1-2.073-1.573c-.272-.319-.477-.677-.772-.991a5.1,5.1,0,0,0-2.607-1.487,12.577,12.577,0,0,0-3.022-.291,5.369,5.369,0,0,0-2.007.243,2.026,2.026,0,0,0-1.335,1.43,2.353,2.353,0,0,0,1.015,2.111,4.9,4.9,0,0,0,2.026.987,16.8,16.8,0,0,0,1.83.214c3.6.377,6.82,2.335,9.976,4.123q4.161,2.35,8.484,4.4a16.993,16.993,0,0,0,.143-2.6c0-.648-.048-1.64-.662-2.021a13.585,13.585,0,0,0-2.7-.815,42.808,42.808,0,0,1-5.429-2.192C613.941,687.491,612.988,686.981,612.068,686.438Z" transform="translate(-327.73 -413.273)" fill="#fbbebe"/>
    <ellipse id="Ellipse_657" data-name="Ellipse 657" cx="6.42" cy="6.458" rx="6.42" ry="6.458" transform="translate(293.67 239.892)" fill="#fbbebe"/>
    <path id="Path_1009" data-name="Path 1009" d="M659.3,661.249a10.439,10.439,0,0,0-1.244,2.321c-.8,1.635-2.04,3.036-2.66,4.766-.658,1.8-.634,3.937-1.906,5.352a1.843,1.843,0,0,0-.558.81,4.025,4.025,0,0,1-.067.586c-.181.515-1.025.539-1.182,1.063-.043.153,0,.319-.076.477-.129.338-.572.386-.872.591-.624.424-.477,1.406-.953,2.016a1.692,1.692,0,0,1-1.6.562,5.94,5.94,0,0,1-1.668-.624,1.5,1.5,0,0,0-.6-.186,1.215,1.215,0,0,0-.691.234,4.269,4.269,0,0,0-1.735,3.66,11.917,11.917,0,0,0,.987,4.089,1.721,1.721,0,0,0,.329.61,1.431,1.431,0,0,0,1.6.114,7.46,7.46,0,0,1,1.558-.7c.991-.181,1.964.505,2.969.448a4.184,4.184,0,0,0,2.007-.886,11.1,11.1,0,0,0,2.707-2.312c.439-.577.763-1.234,1.149-1.849a20.981,20.981,0,0,1,1.621-2.164l3.7-4.533a9.721,9.721,0,0,0,1-1.377,10.082,10.082,0,0,0,.777-2.069,16.354,16.354,0,0,0,.767-3.684,14.71,14.71,0,0,0-.272-3.093,10.748,10.748,0,0,0-.8-2.941C662.769,660.867,660.81,659.485,659.3,661.249Z" transform="translate(-350.373 -401.939)" fill="#2f2e41"/>
    <path id="Path_1010" data-name="Path 1010" d="M668.223,621.514a7.231,7.231,0,0,0-2.974-5.877,8.579,8.579,0,0,0-7.3-8.365,8.341,8.341,0,0,0-16.429.443c-2.669-.6-5.109.181-5.553,1.825-.477,1.721,1.43,3.732,4.251,4.495a7.812,7.812,0,0,0,2.722.272,8.365,8.365,0,0,0,5.748,3.575,8.546,8.546,0,0,0,6.268,6.468,7.149,7.149,0,0,0,1.935,2.679c0,.2-.033.405-.033.615a5.438,5.438,0,1,0,10.867,0,5.721,5.721,0,0,0-.52-2.384A7.307,7.307,0,0,0,668.223,621.514Z" transform="translate(-346.399 -370.617)" fill="#f86d70"/>
    <path id="Path_1011" data-name="Path 1011" d="M637.76,609.828c.443-1.644,2.86-2.426,5.553-1.826a8.479,8.479,0,0,1,8.26-7.149h.553a8.1,8.1,0,0,0-2.383-.353,8.479,8.479,0,0,0-8.26,7.149c-2.669-.6-5.109.181-5.553,1.826-.477,1.721,1.43,3.732,4.251,4.495a8.161,8.161,0,0,0,1.606.276C639.109,613.464,637.307,611.51,637.76,609.828Z" transform="translate(-346.378 -370.574)" opacity="0.1"/>
    <path id="Path_1012" data-name="Path 1012" d="M666.639,643.364a3.834,3.834,0,0,1,.033-.62,7.12,7.12,0,0,1-1.935-2.674,8.579,8.579,0,0,1-6.268-6.473,8.351,8.351,0,0,1-5.748-3.575,7.591,7.591,0,0,1-1.6-.043,8.335,8.335,0,0,0,5.538,3.289,8.546,8.546,0,0,0,6.268,6.468,7.15,7.15,0,0,0,1.935,2.679c0,.2-.033.405-.033.615a5.534,5.534,0,0,0,5.4,5.624A5.614,5.614,0,0,1,666.639,643.364Z" transform="translate(-354.366 -386.003)" opacity="0.1"/>
    <ellipse id="Ellipse_658" data-name="Ellipse 658" cx="0.991" cy="1.32" rx="0.991" ry="1.32" transform="translate(300.642 247.213) rotate(-37.22)" fill="#fbbebe"/>
    <path id="Path_1013" data-name="Path 1013" d="M318.068,694.96l6.349-3.732a15.254,15.254,0,0,0-3.246-3.885L309.2,691.066l9.38-5.515A15.252,15.252,0,0,0,296,698.93c0,8.422,6.83,8.713,15.252,8.713s15.252-.291,15.252-8.713a15.133,15.133,0,0,0-1.311-6.2Z" transform="translate(-168.504 -414.107)" fill="#ff5151"/>
    <path id="Path_1014" data-name="Path 1014" d="M319.683,713.864a11.914,11.914,0,0,0-2.25-1.768,10.386,10.386,0,0,0-3.7-1.806,27.959,27.959,0,0,0-3.637-.1,8.5,8.5,0,0,1-5.572-2.555,17.079,17.079,0,0,0-2.593-2.683,5.672,5.672,0,0,0-3.88-.71,9.436,9.436,0,0,0-1.149.234,15.252,15.252,0,0,0-.9,5.176c0,8.422,6.83,8.713,15.252,8.713,4.089,0,7.8-.067,10.538-1.1l-.477-.853A11.856,11.856,0,0,0,319.683,713.864Z" transform="translate(-168.504 -424.823)" opacity="0.1"/>
  </g>
</svg>
