<svg xmlns="http://www.w3.org/2000/svg" width="561.859" height="416.486" viewBox="0 0 561.859 416.486">
  <g id="undraw_deliveries_131a" transform="translate(0 0.098)">
    <path id="Path_1015" data-name="Path 1015" d="M773.716,345.18l4.421-2.728c.42-.266.834-.55,1.261-.817a42.226,42.226,0,0,1-35.023-39.651,41.787,41.787,0,0,1,3.646-19.234,42.3,42.3,0,0,1,27.111-23.388l-.219,17.4,9.558-18.938a.379.379,0,0,1,.118,0A42.22,42.22,0,0,1,828.73,298.03c.035.8,0,1.6,0,2.367a50.48,50.48,0,0,0,8.345-12.316c4.048-9.025,4.143-19.246,3.805-31.668-.639-24.619-1.7-49.422-3.083-74.154a42.2,42.2,0,0,1-37.491-39.941c-.059-1.3-.042-2.568,0-3.835a6.343,6.343,0,0,1,.047-.947c.083-1.225.2-2.438.385-3.634a3.454,3.454,0,0,1,.107-.592q.26-1.521.621-3.006c.095-.367.183-.74.284-1.107a31.943,31.943,0,0,1,1-3.184c.124-.349.272-.687.4-1.03.3-.769.627-1.527.971-2.278.184-.4.361-.787.556-1.184.047-.1.089-.2.142-.3h0a42.19,42.19,0,0,1,49.57-21.412l-.284,22.643,9.469-18.7A41.959,41.959,0,0,1,883.7,149.243h.047c-.065.3-.16.592-.231.888-.13.556-.272,1.107-.426,1.657-.2.7-.426,1.4-.657,2.089-.178.515-.349,1.042-.544,1.551-.284.746-.592,1.474-.935,2.2-.189.426-.361.858-.592,1.278q-.811,1.633-1.775,3.2c-.219.361-.468.7-.7,1.065-.45.7-.905,1.391-1.4,2.065-.3.414-.627.811-.947,1.219-.462.592-.935,1.184-1.426,1.722-.349.4-.7.787-1.071,1.184-.515.544-1.048,1.071-1.6,1.592-.361.349-.728.7-1.107,1.03-.621.55-1.272,1.077-1.929,1.592-.331.26-.651.533-.994.781q-1.5,1.113-3.1,2.089c-.2.118-.414.219-.592.337-.888.527-1.775,1.018-2.728,1.48-.4.2-.811.367-1.219.55-.763.343-1.533.675-2.32.976-.456.172-.923.331-1.391.491-.775.266-1.562.509-2.367.728-.473.13-.941.26-1.42.373-.864.207-1.746.379-2.634.527a.3.3,0,0,0-.172.036q.876,15.648,1.556,31.313a42.2,42.2,0,0,1,58.589-18.317l-7.463,20.447,15.352-14.742a42.1,42.1,0,0,1,13.612,29.153,41.319,41.319,0,0,1-1.071,11.629,42.2,42.2,0,0,1-77.628,11.5c0,1.059.077,2.125.107,3.184.278,10.96.627,24.6-4.835,36.775-3.7,8.256-9.658,14.961-15.547,20.968-3.829,3.912-7.8,7.694-11.872,11.357a42.219,42.219,0,0,1-15.245,12.677Q795,345.612,784.262,352.358l-4.35,2.805c-4.018,2.492-8.137,5.048-12.179,7.694.71-.071,1.414-.148,2.136-.178a42.238,42.238,0,0,1,41.569,27.478l-26.383,21.477,29-6.729a42.238,42.238,0,0,1-60.53,38.024c.651.817,1.308,1.627,1.959,2.438,1.3,1.616,2.586,3.219,3.847,4.811,17.163,21.737,21.944,42.38,13.44,58.116l-10.333-5.587c8.285-15.316-4.143-34.917-12.327-45.25-1.237-1.562-2.5-3.137-3.782-4.735-10.966-13.612-23.394-29.07-23.081-48.014C723.69,376.185,751.44,358.981,773.716,345.18Z" transform="translate(-369.319 -98.18)" fill="#f2f2f2"/>
    <ellipse id="Ellipse_659" data-name="Ellipse 659" cx="269.57" cy="12.428" rx="269.57" ry="12.428" transform="translate(0 391.532)" fill="#3f3d56"/>
    <path id="Path_1016" data-name="Path 1016" d="M943.479,723.479c1.775-3.261-.237-7.256-2.533-10.167s-5.1-5.918-5.036-9.641c.083-5.326,5.735-8.469,10.256-11.292a50.187,50.187,0,0,0,9.2-7.4,13.488,13.488,0,0,0,2.835-3.788,15.459,15.459,0,0,0,.846-6.735q-.3-11.4-1.124-22.773" transform="translate(-456.128 -324.152)" fill="none" stroke="#3f3d56" stroke-miterlimit="10" stroke-width="4"/>
    <path id="Path_1017" data-name="Path 1017" d="M976.163,645.535a8.321,8.321,0,0,0-4.143-6.806l-1.858,3.681.053-4.45a8.3,8.3,0,1,0,5.918,7.575Z" transform="translate(-465.779 -318.409)" fill="#57b793"/>
    <path id="Path_1018" data-name="Path 1018" d="M951.794,737.669a8.285,8.285,0,1,1,.4-6.687l-5.184,4.22,5.705-1.326A8.286,8.286,0,0,1,951.794,737.669Z" transform="translate(-456.223 -354.322)" fill="#57b793"/>
    <path id="Path_1019" data-name="Path 1019" d="M949.669,707.254a8.285,8.285,0,0,1-8.676-7.912,8.167,8.167,0,0,1,.716-3.782,8.321,8.321,0,0,1,5.326-4.6l-.042,3.427,1.882-3.728h0a8.309,8.309,0,1,1,.775,16.6Z" transform="translate(-458.199 -340.057)" fill="#57b793"/>
    <path id="Path_1020" data-name="Path 1020" d="M983.739,684.564a8.295,8.295,0,1,1,3.669-15.517l-1.468,4.024,3.018-2.9a8.285,8.285,0,0,1,2.687,5.735,8.1,8.1,0,0,1-.213,2.284A8.285,8.285,0,0,1,983.739,684.564Z" transform="translate(-472.106 -330.807)" fill="#57b793"/>
    <path id="Path_1021" data-name="Path 1021" d="M975.109,650.851c-1.917.213-3.782.811-5.705.929a6.208,6.208,0,0,1-5.255-1.84,26.269,26.269,0,0,1-1.539-2.7,5.919,5.919,0,0,0-2.089-1.971,8.285,8.285,0,1,0,15.529,5.516C975.73,650.8,975.416,650.821,975.109,650.851Z" transform="translate(-465.843 -321.536)" opacity="0.1"/>
    <path id="Path_1022" data-name="Path 1022" d="M983.726,687.836a8.285,8.285,0,0,1-7.9-11.836,6.154,6.154,0,0,1,1.669,1.675,26.736,26.736,0,0,0,1.645,2.746,6.774,6.774,0,0,0,5.51,1.923c2.006-.095,3.936-.657,5.918-.84.272,0,.556-.047.834-.053a8.285,8.285,0,0,1-7.676,6.386Z" transform="translate(-472.093 -334.08)" opacity="0.1"/>
    <path id="Path_1023" data-name="Path 1023" d="M949.669,710.644a8.285,8.285,0,0,1-8.676-7.913,8.167,8.167,0,0,1,.716-3.782,6.816,6.816,0,0,1,1.775,1.687c.645.911,1.048,1.959,1.775,2.8a7.671,7.671,0,0,0,5.883,2.06c2.125-.053,4.036-.55,6.084-.7a8.321,8.321,0,0,1-7.557,5.853Z" transform="translate(-458.199 -343.447)" opacity="0.1"/>
    <path id="Path_1024" data-name="Path 1024" d="M951.64,741.306A8.3,8.3,0,1,1,936.5,734.5a8.613,8.613,0,0,1,1.823,1.627,32.757,32.757,0,0,0,2.225,2.959,10.336,10.336,0,0,0,6.877,2.415,35.584,35.584,0,0,0,4.22-.2Z" transform="translate(-456.069 -357.958)" opacity="0.1"/>
    <path id="Path_1025" data-name="Path 1025" d="M927.54,764.205s6.551-.2,8.528-1.61,10.061-3.089,10.576-.829,9.854,11.244,2.45,11.28-17.2-1.184-19.169-2.367S927.54,764.205,927.54,764.205Z" transform="translate(-452.712 -368.637)" fill="#656380"/>
    <path id="Path_1026" data-name="Path 1026" d="M949.224,774.688c-7.4.059-17.2-1.184-19.169-2.367-1.5-.911-2.1-4.2-2.3-5.711h-.219s.414,5.285,2.367,6.51,11.765,2.415,19.169,2.367c2.136,0,2.876-.781,2.835-1.906C951.633,774.25,950.816,774.676,949.224,774.688Z" transform="translate(-452.712 -371.065)" opacity="0.2"/>
    <path id="Path_1027" data-name="Path 1027" d="M293.4,621.424c-4.3-7.954.592-17.7,6.179-24.785s12.428-14.464,12.28-23.5c-.213-12.984-13.99-20.648-25-27.531a122.083,122.083,0,0,1-22.447-18.044c-2.7-2.764-5.326-5.711-6.9-9.238-2.273-5.078-2.213-10.848-2.065-16.411q.71-27.815,2.746-55.524" transform="translate(-178.347 -240.355)" fill="none" stroke="#3f3d56" stroke-miterlimit="10" stroke-width="4"/>
    <path id="Path_1028" data-name="Path 1028" d="M224.745,431.378a20.246,20.246,0,0,1,10.108-16.571l4.533,8.966-.136-10.854A20.252,20.252,0,1,1,224.745,431.4Z" transform="translate(-165.83 -226.355)" fill="#57b793"/>
    <path id="Path_1029" data-name="Path 1029" d="M284.237,655.915a20.24,20.24,0,0,0,38.225-8.285,19.98,19.98,0,0,0-1.32-8.214,20.252,20.252,0,0,0-37.876.219l12.647,10.286L282,646.683A20.02,20.02,0,0,0,284.237,655.915Z" transform="translate(-189.21 -313.853)" fill="#57b793"/>
    <path id="Path_1030" data-name="Path 1030" d="M289.372,581.9a20.252,20.252,0,0,0,6.421-39.722l.107,8.339-4.557-9.073h-.053a20.253,20.253,0,0,0-1.888,40.462Z" transform="translate(-184.349 -279.146)" fill="#57b793"/>
    <path id="Path_1031" data-name="Path 1031" d="M206.282,526.63a20.252,20.252,0,1,0-8.948-37.876l3.551,9.806-7.333-7.084a20.157,20.157,0,0,0-6.569,13.979,19.749,19.749,0,0,0,.515,5.575A20.246,20.246,0,0,0,206.282,526.63Z" transform="translate(-150.415 -256.585)" fill="#57b793"/>
    <path id="Path_1032" data-name="Path 1032" d="M227.764,444.412c4.675.515,9.22,1.965,13.908,2.255s9.842-.829,12.807-4.474c1.6-1.965,2.4-4.45,3.746-6.593a14.369,14.369,0,0,1,5.1-4.8,20.252,20.252,0,1,1-37.876,13.44C226.237,444.276,227.006,444.329,227.764,444.412Z" transform="translate(-166.127 -233.992)" opacity="0.1"/>
    <path id="Path_1033" data-name="Path 1033" d="M206.67,534.63a20.264,20.264,0,0,0,19.263-28.88,14.979,14.979,0,0,0-4.072,4.072c-1.444,2.178-2.314,4.693-4.012,6.693-3.154,3.7-8.54,4.918-13.428,4.7s-9.605-1.616-14.47-2.059c-.675-.059-1.361-.107-2.042-.124A20.246,20.246,0,0,0,206.67,534.63Z" transform="translate(-150.803 -264.585)" opacity="0.1"/>
    <path id="Path_1034" data-name="Path 1034" d="M289.971,590.158a20.246,20.246,0,0,0,19.423-28.508,16.376,16.376,0,0,0-4.279,4.143c-1.574,2.219-2.557,4.776-4.4,6.824-3.415,3.805-9.155,5.149-14.334,5.024-5.013-.107-9.842-1.338-14.825-1.722A20.264,20.264,0,0,0,289.971,590.158Z" transform="translate(-184.948 -287.403)" opacity="0.1"/>
    <path id="Path_1035" data-name="Path 1035" d="M285.78,664.86a20.24,20.24,0,0,0,38.225-8.285,19.979,19.979,0,0,0-1.32-8.214,20.276,20.276,0,0,0-4.439,3.959c-1.923,2.367-3.2,5.007-5.421,7.2-4.143,4.06-10.824,5.741-16.772,5.918a86.87,86.87,0,0,1-10.274-.574Z" transform="translate(-190.753 -322.797)" opacity="0.1"/>
    <path id="Path_1036" data-name="Path 1036" d="M328.765,600.273l-78.119,15.979-1.775-.178-68.65-6.924v-87l84.037-14.2,60.957,7.1.018.385.006.189Z" transform="translate(-73.564 -207.379)" fill="#ff5151"/>
    <path id="Path_1037" data-name="Path 1037" d="M376.115,605.436,298,621.415l-1.775-.178V532.052L372.581,520.6Z" transform="translate(-120.913 -212.543)" opacity="0.1"/>
    <path id="Path_1038" data-name="Path 1038" d="M325.238,515.626l-.024.018L248.87,526.888l-68.65-4.734,84.037-14.2,60.957,7.1.018.385Z" transform="translate(-73.564 -207.379)" opacity="0.05"/>
    <path id="Path_1039" data-name="Path 1039" d="M473.765,606.273l-78.119,15.979-1.775-.177-68.65-6.924v-87l84.037-14.2,60.957,7.1.018.385.006.189Z" transform="translate(-132.751 -209.829)" fill="#3f3d56"/>
    <path id="Path_1040" data-name="Path 1040" d="M521.115,611.436,443,627.415l-1.775-.178V538.051L517.581,526.6Z" transform="translate(-180.101 -214.992)" opacity="0.1"/>
    <path id="Path_1041" data-name="Path 1041" d="M470.238,521.626l-.024.018L393.87,532.888l-68.65-4.734,84.037-14.2,60.957,7.1.018.385Z" transform="translate(-132.751 -209.829)" opacity="0.05"/>
    <path id="Path_1042" data-name="Path 1042" d="M382.765,462.273l-78.119,15.979-1.775-.178-68.65-6.924v-87l84.037-14.2,60.957,7.1.018.385.006.189Z" transform="translate(-95.606 -151.049)" fill="#3f3d56"/>
    <path id="Path_1043" data-name="Path 1043" d="M430.115,467.436,352,483.415l-1.775-.178V394.052L426.581,382.6Z" transform="translate(-142.956 -156.213)" opacity="0.1"/>
    <path id="Path_1044" data-name="Path 1044" d="M379.238,377.626l-.024.018L302.87,388.888l-68.65-4.734,84.037-14.2,60.957,7.1.018.385Z" transform="translate(-95.606 -151.049)" opacity="0.05"/>
    <path id="Path_1045" data-name="Path 1045" d="M506.747,498.875l-40.77,8.345-.929-.095-35.828-3.616v-45.4l43.859-7.415,31.816,3.711.012.2v.095Z" transform="translate(-175.203 -184.007)" fill="#3f3d56"/>
    <path id="Path_1046" data-name="Path 1046" d="M531.459,501.573l-40.77,8.345-.929-.095V463.277l39.858-5.977Z" transform="translate(-199.914 -186.705)" opacity="0.1"/>
    <path id="Path_1047" data-name="Path 1047" d="M504.907,454.7l-.012.012-39.847,5.871-35.828-2.474,43.859-7.415,31.816,3.711.012.2Z" transform="translate(-175.203 -184.007)" opacity="0.05"/>
    <path id="Path_1048" data-name="Path 1048" d="M321.747,349.875l-40.77,8.339-.929-.089-35.828-3.616v-45.4l43.859-7.415,31.816,3.711.012.2v.095Z" transform="translate(-99.688 -123.186)" fill="#3f3d56"/>
    <path id="Path_1049" data-name="Path 1049" d="M346.459,352.573l-40.77,8.339-.929-.089V314.277l39.858-5.977Z" transform="translate(-124.399 -125.885)" opacity="0.1"/>
    <path id="Path_1050" data-name="Path 1050" d="M319.907,305.7l-.012.012-39.847,5.871-35.828-2.474,43.859-7.415,31.816,3.711.012.2Z" transform="translate(-99.688 -123.186)" opacity="0.05"/>
    <path id="Path_1051" data-name="Path 1051" d="M442.747,346.875l-40.77,8.339-.929-.089-35.828-3.616v-45.4l43.859-7.415,31.816,3.711.012.2v.095Z" transform="translate(-149.079 -121.962)" fill="#ff5151"/>
    <path id="Path_1052" data-name="Path 1052" d="M467.459,349.573l-40.77,8.339-.929-.089V311.277l39.858-5.977Z" transform="translate(-173.79 -124.66)" opacity="0.1"/>
    <path id="Path_1053" data-name="Path 1053" d="M440.907,302.7l-.012.012-39.847,5.871-35.828-2.474,43.859-7.415,31.816,3.711.012.2Z" transform="translate(-149.079 -121.962)" opacity="0.05"/>
    <path id="Path_1054" data-name="Path 1054" d="M478.747,269.875l-40.77,8.339-.929-.089-35.828-3.616v-45.4l43.859-7.415,31.816,3.711.012.2v.095Z" transform="translate(-163.773 -90.531)" fill="#3f3d56"/>
    <path id="Path_1055" data-name="Path 1055" d="M503.459,272.573l-40.77,8.339-.929-.089V234.277l39.858-5.977Z" transform="translate(-188.485 -93.229)" opacity="0.1"/>
    <path id="Path_1056" data-name="Path 1056" d="M476.907,225.7l-.012.012-39.847,5.871-35.828-2.474,43.859-7.415,31.816,3.711.012.2Z" transform="translate(-163.773 -90.531)" opacity="0.05"/>
    <path id="Path_1057" data-name="Path 1057" d="M700.95,236.144c-.432,3.847-3.367,6.948-4.456,10.653-1.633,5.593,1.184,11.6,5.066,15.979a35.373,35.373,0,0,0,24.631,11.682,10.6,10.6,0,0,0,4.072-.444,8.842,8.842,0,0,0,3.1-2.119,19.792,19.792,0,0,0,5.1-11.073,59.22,59.22,0,0,0,.142-12.375,7,7,0,0,0-.462-2.5,6.345,6.345,0,0,0-1.6-1.971,37.28,37.28,0,0,0-6.895-5.013,7.744,7.744,0,0,1-2.888-2.207,7.226,7.226,0,0,1-.894-2.645l-.763-3.882a7.612,7.612,0,0,0-1.119-3.148c-1.343-1.811-3.918-2.06-6.173-2.148l-8.285-.326c-2.574-.1-5.96-.84-8.475-.331-2.367.468-1.568,2.634-1.142,4.6A33.248,33.248,0,0,1,700.95,236.144Z" transform="translate(-358.208 -149.619)" fill="#ffc0c6"/>
    <path id="Path_1058" data-name="Path 1058" d="M700.95,236.144c-.432,3.847-3.367,6.948-4.456,10.653-1.633,5.593,1.184,11.6,5.066,15.979a35.373,35.373,0,0,0,24.631,11.682,10.6,10.6,0,0,0,4.072-.444,8.842,8.842,0,0,0,3.1-2.119,19.792,19.792,0,0,0,5.1-11.073,59.22,59.22,0,0,0,.142-12.375,7,7,0,0,0-.462-2.5,6.345,6.345,0,0,0-1.6-1.971,37.28,37.28,0,0,0-6.895-5.013,7.744,7.744,0,0,1-2.888-2.207,7.226,7.226,0,0,1-.894-2.645l-.763-3.882a7.612,7.612,0,0,0-1.119-3.148c-1.343-1.811-3.918-2.06-6.173-2.148l-8.285-.326c-2.574-.1-5.96-.84-8.475-.331-2.367.468-1.568,2.634-1.142,4.6A33.248,33.248,0,0,1,700.95,236.144Z" transform="translate(-358.208 -149.619)" opacity="0.1"/>
    <path id="Path_1059" data-name="Path 1059" d="M763.608,524.065,760.093,562.6c-.917,10.108-1.852,20.258-3.651,30.236-.592,3.438-1.349,6.859-2.213,10.25-2.4,9.416-5.889,18.618-7.013,28.271-.036.278-.065.592-.095.846a25.348,25.348,0,0,1-1.184,6.273c-.592,1.474-1.426,2.817-2.036,4.273a28.006,28.006,0,0,0-1.521,9.285A40.031,40.031,0,0,0,728.6,647.3c-2.367-.349-4.942-.592-6.51-2.367-1.775-1.929-1.568-4.882-1.272-7.475q1.4-12.073,2.782-24.134a62.9,62.9,0,0,1,1.775-10.25c.32-1.119.7-2.219,1.095-3.32.539-1.515,1.083-3.03,1.491-4.587a55.225,55.225,0,0,0,1.172-7.593c.953-8.1,2.1-16.174,3.107-24.264l.053-.426c1.509-12.262,2.657-24.584,2.326-36.935-.047-1.829-.124-3.657-.243-5.492-.166-2.657-.408-4.066,1.775-5.729a41.409,41.409,0,0,1,8.416-4.32c1.5-.651,17.985-6.51,18.346-5.22a32.13,32.13,0,0,1,1.184,8.416A93.651,93.651,0,0,1,763.608,524.065Z" transform="translate(-368.248 -264.282)" fill="#605d82"/>
    <path id="Path_1060" data-name="Path 1060" d="M760.435,632.762c-.592,3.438-1.349,6.859-2.213,10.25-2.4,9.416-5.889,18.618-7.013,28.271-.036.278-.065.592-.095.846-7.35-10.5-13.541-21.791-20.713-32.4.539-1.515,1.083-3.03,1.491-4.587a55.247,55.247,0,0,0,1.231-7.64c.953-8.1,2.1-16.174,3.107-24.264l.053-.426a25.141,25.141,0,0,0,1.775,4.977c4.817,9.788,16.263,14.736,21.862,24.1Q760.2,632.33,760.435,632.762Z" transform="translate(-372.242 -304.204)" opacity="0.1"/>
    <path id="Path_1061" data-name="Path 1061" d="M680.347,475.127A182.035,182.035,0,0,0,683.1,498.51l2.586,15.979c1.414,8.759,2.894,17.689,7.037,25.531,3.1,5.871,7.563,10.878,11.605,16.139,9.931,12.937,17.393,27.6,26.809,40.912,2.74,3.87,6.652,8.06,11.321,7.25,3.066-.527,5.291-3.083,7.694-5.048,2.841-2.32,6.261-4.018,8.5-6.93s2.675-7.741-.355-9.812a16.363,16.363,0,0,0-3.468-1.42c-4.693-1.775-7.735-6.368-9.664-11.008s-3.107-9.617-5.681-13.931c-5.6-9.368-17.05-14.316-21.867-24.11-2.7-5.48-2.959-11.836-3.16-17.914l-.527-15.571a11.339,11.339,0,0,1,.592-5.03c1.841-4.143,7.4-4.533,11.913-5.06a40.688,40.688,0,0,0,14.6-4.6c2.6-1.4,5.131-3.19,6.51-5.794,1.266-2.367,1.438-5.155,1.586-7.842l1.562-28.223a17.8,17.8,0,0,0-.592-7.214c-2.148-5.717-9.368-7.587-15.47-7.315-11.351.509-21.826,5.391-32.55,8.694a83.183,83.183,0,0,1-8.066,2.1c-2.367.479-5.326.284-7.6,1.053-4.072,1.373-3.971,10.286-4.545,13.979a117.344,117.344,0,0,0-1.521,21.808Z" transform="translate(-351.797 -232.631)" fill="#605d82"/>
    <path id="Path_1062" data-name="Path 1062" d="M781.161,715.736a7.235,7.235,0,0,1,1.586,3.888,132.67,132.67,0,0,1,2.249,23.5,3.894,3.894,0,0,0,.42,2.13,2.717,2.717,0,0,0,1.107.888c2.894,1.379,6.25-.544,8.664-2.657,4.468-3.912,8.25-9.167,8.5-15.1a34.75,34.75,0,0,1,.16-4.581c.391-2.237,1.7-4.184,2.847-6.137a52.1,52.1,0,0,0,4.735-10.546c.438-1.385.734-3.125-.355-4.089a3.805,3.805,0,0,0-1.284-.669l-13.079-4.853c-1.136-.42-3.953,6.818-4.4,7.611-1.095,1.935-2.184,3.03-4.379,3.48s-4.906-.2-7,.917C777.385,711.4,779.155,713.718,781.161,715.736Z" transform="translate(-392.039 -342.852)" fill="#535070"/>
    <path id="Path_1063" data-name="Path 1063" d="M738.386,734.315a3.983,3.983,0,0,0-.994-1.261,4.456,4.456,0,0,0-2.006-.681c-2.486-.426-5.433-.7-7.155,1.148-1.61,1.734-1.332,4.557-2.675,6.51a20.264,20.264,0,0,0-1.373,1.775,6.663,6.663,0,0,0-.592,3.184c-.071,3.012-.142,6.036.071,9.043.172,2.521.592,5.167,2.172,7.143,2.533,3.172,7.1,3.628,11.15,3.829l3.285.172a6.508,6.508,0,0,0,2.687-.249,4.409,4.409,0,0,0,2.32-2.551c1.71-4.249-.994-8.824-2.663-13.085C740.688,744.388,741.032,738.949,738.386,734.315Z" transform="translate(-369.433 -356.963)" fill="#535070"/>
    <path id="Path_1064" data-name="Path 1064" d="M695,191.729a2.682,2.682,0,0,1,.184-1.266c.479-.846,1.734-.592,2.681-.379,3.805.959,7.818.089,11.742.314s8.339,2.184,9.126,6.031a28.531,28.531,0,0,0,7.238-7.433,8.918,8.918,0,0,0,1.888-5.445c-.213-2.817-2.574-4.924-4.734-6.711l-6.51-5.326a9.89,9.89,0,0,0-2.924-1.858c-1.5-.515-3.148-.266-4.734-.266-4.734,0-9.812-2.16-14.032,0a14.977,14.977,0,0,0-4.373,3.977l-5.818,6.889a3.674,3.674,0,0,0-.935,1.58,6.955,6.955,0,0,0,.42,2.515c.272,1.539-.391,3.184.118,4.663.846,2.45,3.829,2.8,5.652,4.208.675.521,1.74,2.3,2.551,2.278C693.962,195.469,694.956,192.865,695,191.729Z" transform="translate(-353.202 -126.894)" fill="#3f3d56"/>
    <circle id="Ellipse_660" data-name="Ellipse 660" cx="18.642" cy="18.642" r="18.642" transform="translate(333.024 47.867)" fill="#ffc0c6"/>
    <path id="Path_1065" data-name="Path 1065" d="M695.865,265.721a9.031,9.031,0,0,0-8.765-6.048,2.634,2.634,0,0,1-1.622-.207,2.244,2.244,0,0,1-.669-.829,32.984,32.984,0,0,1-2.716-6.427c-.3-.988-.7-2.154-1.7-2.409a2.287,2.287,0,0,0-2.166.947,20.728,20.728,0,0,1-1.551,1.947c-2.367,2.1-6.51.183-8.99,2.107-.408.314-.746.716-1.184,1.006a5.387,5.387,0,0,1-1.367.592A131.025,131.025,0,0,0,651,261.922c1.657,9.966,3.35,20.122,7.232,29.443,1.846,4.439,3.936,8.788,5.415,13.363,3.279,10.138,3.421,20.986,3.462,31.644,0,7.291,0,14.736-2.367,21.637a20.94,20.94,0,0,0-1.332,4.734,4.924,4.924,0,0,0,1.669,4.427,5.628,5.628,0,0,0,2.574.905c4.089.592,8.208-.485,12.233-1.42,10.789-2.5,21.8-3.93,32.774-5.326l18.405-2.367a10.765,10.765,0,0,0,3.811-.988c3.367-1.841,3.687-6.906,1.592-10.126-1-1.545-2.415-2.811-3.261-4.445s-.911-3.93.539-5.06c2.959-2.308,2.071-6.587,2.213-10.327q.592-15.695-.16-31.366a61.378,61.378,0,0,1-.107-6.51,57.437,57.437,0,0,1,2.03-10.866l5.593-22.015c-1.462-2.308-4.261-3.776-6.906-4.439s-5.409-.858-8.019-1.669c-5.326-1.657-10.108-5.859-15.689-5.468a2.871,2.871,0,0,0-1.219.3c-1.255.716-1.059,2.527-1.136,3.971-.177,3.2-2.533,5.871-5.125,7.747s-5.563,3.237-7.948,5.374a3.551,3.551,0,0,0-1.409,2.651Z" transform="translate(-339.831 -158.418)" fill="#3f3d56"/>
    <path id="Path_1066" data-name="Path 1066" d="M595.166,310.065a21.893,21.893,0,0,1-3.918,2.018,13.023,13.023,0,0,0-3.758,1.823,5.946,5.946,0,0,0-1.308,1.616,7.179,7.179,0,0,0,6.616,10.694,14.425,14.425,0,0,0,4.894-1.462l13.15-5.723c2.225-.965,4.628-2.089,5.681-4.279a1.03,1.03,0,0,0,.13-.681,1.118,1.118,0,0,0-.544-.592,29.454,29.454,0,0,1-7.652-7.22c-.539-.734-1.184-2.462-1.965-2.906C603.712,301.809,597.4,308.621,595.166,310.065Z" transform="translate(-312.996 -181.877)" fill="#ffc0c6"/>
    <path id="Path_1067" data-name="Path 1067" d="M817.875,307l4.847,5.539c1.042,1.184,2.083,2.367,3.03,3.646a42.414,42.414,0,0,1,5.551,10.457c1.053,2.764,1.929,5.711,1.562,8.646a21.3,21.3,0,0,1-1.213,4.4,54.369,54.369,0,0,1-3.3,7.93,45.126,45.126,0,0,1-3.687,5.545,129.664,129.664,0,0,1-12.292,14.056c-1.657,1.639-2.367,4.3-3.071,6.51-1.332,4.089-4.5,7.279-7.557,10.3a20.824,20.824,0,0,1-3.249,2.793,10.535,10.535,0,0,1-5.918,1.681,6.51,6.51,0,0,1-2.657-.55c-2.1-.994-3.16-3.415-3.379-5.723a12.25,12.25,0,0,1,1.018-6.131c2.782-6.161,9.925-8.83,14.973-13.328a48.867,48.867,0,0,0,7.463-9.22,31.982,31.982,0,0,0,3.77-6.611c1.124-3.012.687-6.575,1.675-9.629.414-1.3,1.184-2.462,1.6-3.746a4.437,4.437,0,0,0-.225-3.912,5.651,5.651,0,0,0-2.2-1.61c-3.225-1.633-6.835-3.74-7.451-7.309a7.824,7.824,0,0,1,1.444-5.581,23.082,23.082,0,0,1,4.066-4.261C814.087,309.622,816.46,308.219,817.875,307Z" transform="translate(-395.138 -183.458)" fill="#ffc0c6"/>
    <path id="Path_1068" data-name="Path 1068" d="M581.289,324.53c-.852-1.728-1.923-3.492-3.651-4.35a6.723,6.723,0,0,0-5.326,0A20.194,20.194,0,0,0,567.648,323l-4.178,3.083a10.28,10.28,0,0,0-2.48,2.29,9.536,9.536,0,0,0-1.29,3.551,25.786,25.786,0,0,0-.657,8.765c.663,4.735,3.5,8.83,6.628,12.428,1.953,2.237,4.368,4.5,7.339,4.6a3.367,3.367,0,0,0,3.243-1.633,4.043,4.043,0,0,0,.29-1.456c.319-5.255-1.562-10.386-3.752-15.174a9.386,9.386,0,0,1-1.184-4.078,1.1,1.1,0,0,1,.178-.686,1.148,1.148,0,0,1,.71-.349c3-.592,8.173,1.74,10.274-1.592C584.129,330.543,582.259,326.489,581.289,324.53Z" transform="translate(-302.232 -188.614)" fill="#ffc0c6"/>
    <path id="Path_1069" data-name="Path 1069" d="M693.346,181.819a2.757,2.757,0,0,1,.189-1.266c.479-.852,1.734-.592,2.681-.379,3.805.959,7.818.089,11.742.314s8.333,2.184,9.126,6.031a28.722,28.722,0,0,0,7.238-7.433,8.948,8.948,0,0,0,1.888-5.451c-.213-2.817-2.58-4.924-4.734-6.705l-6.51-5.326a9.859,9.859,0,0,0-2.918-1.858c-1.509-.515-3.148-.266-4.734-.266-4.734,0-9.812-2.16-14.032,0a14.978,14.978,0,0,0-4.373,3.977l-5.823,6.889a3.687,3.687,0,0,0-.929,1.58,6.953,6.953,0,0,0,.42,2.515c.272,1.539-.391,3.184.118,4.658.846,2.456,3.829,2.805,5.652,4.214.675.521,1.74,2.3,2.551,2.278C692.3,185.559,693.292,182.955,693.346,181.819Z" transform="translate(-352.533 -122.849)" fill="#3f3d56"/>
    <path id="Path_1070" data-name="Path 1070" d="M627.308,279.937a7.729,7.729,0,0,0-1.953,1.817c-.681,1.036-.823,2.367-1.408,3.432-1.255,2.332-4.2,3.166-6.025,5.078a1.888,1.888,0,0,0-.592.994,2.2,2.2,0,0,0,.491,1.432l8.842,13.9c2.959.26,5.764-1.586,8.711-1.337a8.786,8.786,0,0,0,3.279.142,9.529,9.529,0,0,0,2.1-1.284c1.775-1.113,4.1-1.243,5.569-2.7s1.6-3.61,1.58-5.6a22.113,22.113,0,0,0-.527-5.149c-1.3-5.326-5.38-9.433-7.936-14.156-1.249-2.3-1.923-3.646-4.557-2.065S629.8,278.114,627.308,279.937Z" transform="translate(-326.087 -169.882)" fill="#3f3d56"/>
    <path id="Path_1071" data-name="Path 1071" d="M805.131,269.1A20.753,20.753,0,0,1,809.582,273c1.343,1.734,2.107,3.865,3.4,5.64a61.6,61.6,0,0,0,4.379,4.64,35.365,35.365,0,0,1,5.054,8.232,123.458,123.458,0,0,1-11.434,12.9,3.664,3.664,0,0,1-1.74,1.136,2.788,2.788,0,0,1-2.45-1c-.639-.663-1.089-1.491-1.7-2.184a8.729,8.729,0,0,0-5.4-2.61,37.117,37.117,0,0,0-6.125-.089,2.367,2.367,0,0,1-1.308-.219,2.16,2.16,0,0,1-.71-.817c-2.367-4.072-1.627-9.185-.781-13.837l1.935-10.653a23.933,23.933,0,0,1,1.616-5.918c.734-1.568,2.367-4.231,4.391-3.758S803.421,267.871,805.131,269.1Z" transform="translate(-396.551 -166.072)" fill="#3f3d56"/>
    <path id="Path_1072" data-name="Path 1072" d="M351.747,272.875l-40.77,8.339-.929-.089-35.828-3.616v-45.4l43.859-7.415,31.816,3.711.012.2v.095Z" transform="translate(-111.933 -91.756)" fill="#ff5151"/>
    <path id="Path_1073" data-name="Path 1073" d="M376.459,275.573l-40.77,8.339-.929-.089V237.277l39.858-5.977Z" transform="translate(-136.645 -94.454)" opacity="0.1"/>
    <path id="Path_1074" data-name="Path 1074" d="M349.907,228.7l-.012.012-39.847,5.871-35.828-2.474,43.859-7.415,31.816,3.711.012.2Z" transform="translate(-111.933 -91.756)" opacity="0.05"/>
    <path id="Path_1075" data-name="Path 1075" d="M387.747,196.875l-40.77,8.345-.929-.095-35.828-3.616v-45.4l43.859-7.415,31.816,3.711.012.2v.095Z" transform="translate(-126.628 -60.734)" fill="#3f3d56"/>
    <path id="Path_1076" data-name="Path 1076" d="M412.459,199.573l-40.77,8.345-.929-.095V161.277l39.858-5.977Z" transform="translate(-151.34 -63.432)" opacity="0.1"/>
    <path id="Path_1077" data-name="Path 1077" d="M385.907,152.7l-.012.012-39.847,5.871-35.828-2.474,43.859-7.415,31.816,3.711.012.2Z" transform="translate(-126.628 -60.734)" opacity="0.05"/>
  </g>
</svg>
