<svg xmlns="http://www.w3.org/2000/svg" viewBox="0 0 64 64"><g data-name="Layer 14"><path d="M62 1H28a1 1 0 0 0-1 1v29h-9v-9.07A9.09 9.09 0 0 0 16.25 5 1 1 0 0 0 15 6v7a1 1 0 0 1-2 0V6a1 1 0 0 0-1.25-1A9.09 9.09 0 0 0 10 21.93V31H4a1 1 0 0 0-1 1v9H2a1 1 0 0 0-1 1v10a1 1 0 0 0 1 1h1v9a1 1 0 0 0 1 1h54a1 1 0 0 0 1-1V52a1 1 0 0 0-1-1h-1v-6h5a1 1 0 0 0 1-1V2a1 1 0 0 0-1-1ZM29 3h4v40h-4Zm20 42v6H17v-8h10v1a1 1 0 0 0 1 1ZM17 33v8h-2v-8Zm-2 10v8h-2v-8Zm2 10v8h-2v-8Zm2 0h32v8H19Zm8-12h-8v-8h8ZM11.38 20.36A7.1 7.1 0 0 1 11 7.42V13a3 3 0 0 0 6 0V7.42a7.1 7.1 0 0 1-.38 12.94 1 1 0 0 0-.62.93V31h-4v-9.71a1 1 0 0 0-.62-.93ZM5 33h8v8H5ZM3 51v-8h8v8H3Zm2 2h8v8H5Zm52 8h-4v-8h4Zm-2-10h-4v-6h4Zm6-8H35V3h26Z"/><path d="M38 31h1.52a7.12 7.12 0 0 0 .31.76l-1.54 1.53a1 1 0 0 0 0 1.42l3 3a1 1 0 0 0 1.42 0l1.53-1.54a7.12 7.12 0 0 0 .76.31V38a1 1 0 0 0 1 1h4a1 1 0 0 0 1-1v-1.52a7.12 7.12 0 0 0 .76-.31l1.53 1.54a1 1 0 0 0 1.42 0l3-3a1 1 0 0 0 0-1.42l-1.54-1.53a7.12 7.12 0 0 0 .31-.76H58a1 1 0 0 0 1-1v-4a1 1 0 0 0-1-1h-1.52a7.12 7.12 0 0 0-.31-.76l1.54-1.53a1 1 0 0 0 0-1.42l-3-3a1 1 0 0 0-1.42 0l-1.53 1.54a7.12 7.12 0 0 0-.76-.31V18a1 1 0 0 0-1-1h-4a1 1 0 0 0-1 1v1.52a7.12 7.12 0 0 0-.76.31l-1.53-1.54a1 1 0 0 0-1.42 0l-3 3a1 1 0 0 0 0 1.42l1.54 1.53a7.12 7.12 0 0 0-.31.76H38a1 1 0 0 0-1 1v4a1 1 0 0 0 1 1Zm1-4h1.26a1 1 0 0 0 1-.75 7.12 7.12 0 0 1 .69-1.71 1 1 0 0 0-.16-1.2L40.41 22 42 20.41l1.34 1.35a1 1 0 0 0 1.2.16 7.12 7.12 0 0 1 1.71-.69 1 1 0 0 0 .75-1V19h2v1.26a1 1 0 0 0 .75 1 7.12 7.12 0 0 1 1.71.69 1 1 0 0 0 1.2-.16L54 20.41 55.59 22l-1.35 1.34a1 1 0 0 0-.16 1.2 7.12 7.12 0 0 1 .69 1.71 1 1 0 0 0 1 .75H57v2h-1.26a1 1 0 0 0-1 .75 7.12 7.12 0 0 1-.69 1.71 1 1 0 0 0 .16 1.2L55.59 34 54 35.59l-1.34-1.35a1 1 0 0 0-1.2-.16 7.12 7.12 0 0 1-1.71.69 1 1 0 0 0-.75 1V37h-2v-1.26a1 1 0 0 0-.75-1 7.12 7.12 0 0 1-1.71-.69 1 1 0 0 0-1.2.16L42 35.59 40.41 34l1.35-1.34a1 1 0 0 0 .16-1.2 7.12 7.12 0 0 1-.69-1.71 1 1 0 0 0-1-.75H39Z"/><path d="M48 33a5 5 0 1 0-5-5 5 5 0 0 0 5 5zm0-8a3 3 0 1 1-3 3 3 3 0 0 1 3-3zM38 15h20a1 1 0 0 0 1-1V6a1 1 0 0 0-1-1H38a1 1 0 0 0-1 1v8a1 1 0 0 0 1 1zm1-8h18v6H39z"/></g></svg>