<svg xmlns="http://www.w3.org/2000/svg" viewBox="0 0 64 64"><g data-name="Layer 10"><path d="M26 31h-3v-3a1 1 0 0 0-1-1h-4a1 1 0 0 0-1 1v3h-3a1 1 0 0 0-1 1v4a1 1 0 0 0 1 1h3v3a1 1 0 0 0 1 1h4a1 1 0 0 0 1-1v-3h3a1 1 0 0 0 1-1v-4a1 1 0 0 0-1-1Zm-1 4h-3a1 1 0 0 0-1 1v3h-2v-3a1 1 0 0 0-1-1h-3v-2h3a1 1 0 0 0 1-1v-3h2v3a1 1 0 0 0 1 1h3Z"/><path d="M59 39H39V22a1 1 0 0 0-.24-.65L33 14.63V11h1a1 1 0 0 0 1-1V2a1 1 0 0 0-1-1H6a1 1 0 0 0-1 1v8a1 1 0 0 0 1 1h1v3.63l-5.76 6.72A1 1 0 0 0 1 22v26a5 5 0 0 0 5 5h19v6a4 4 0 0 0 4 4h30a4 4 0 0 0 4-4V43a4 4 0 0 0-4-4ZM7 3h26v6H7Zm24 8v3H9v-3ZM8.46 16h23.08l4.29 5H4.17ZM6 51a3 3 0 0 1-3-3v-1h22v4Zm19-8v2H3V23h34v16h-8a4 4 0 0 0-4 4Zm36 16a2 2 0 0 1-2 2H29a2 2 0 0 1-2-2V43a2 2 0 0 1 2-2h30a2 2 0 0 1 2 2Z"/><path d="M32 43a3 3 0 1 0 3 3 3 3 0 0 0-3-3zm0 4a1 1 0 1 1 1-1 1 1 0 0 1-1 1zm8-4a3 3 0 1 0 3 3 3 3 0 0 0-3-3zm0 4a1 1 0 1 1 1-1 1 1 0 0 1-1 1zm8-4a3 3 0 1 0 3 3 3 3 0 0 0-3-3zm0 4a1 1 0 1 1 1-1 1 1 0 0 1-1 1zm8-4a3 3 0 1 0 3 3 3 3 0 0 0-3-3zm0 4a1 1 0 1 1 1-1 1 1 0 0 1-1 1zm-24 6a3 3 0 1 0 3 3 3 3 0 0 0-3-3zm0 4a1 1 0 1 1 1-1 1 1 0 0 1-1 1zm8-4a3 3 0 1 0 3 3 3 3 0 0 0-3-3zm0 4a1 1 0 1 1 1-1 1 1 0 0 1-1 1zm8-4a3 3 0 1 0 3 3 3 3 0 0 0-3-3zm0 4a1 1 0 1 1 1-1 1 1 0 0 1-1 1zm8-4a3 3 0 1 0 3 3 3 3 0 0 0-3-3zm0 4a1 1 0 1 1 1-1 1 1 0 0 1-1 1zm-8-26.41a3.4 3.4 0 0 0 0 4.82l.59.59a3.4 3.4 0 0 0 4.82 0L58 31.41a3.4 3.4 0 0 0 0-4.82l-.59-.59a3.49 3.49 0 0 0-4.82 0zm4 4a1.48 1.48 0 0 1-2 0l-.59-.59a1.42 1.42 0 0 1 0-2L51 30.41 53.59 33zM55 27a1.43 1.43 0 0 1 1 .41l.59.59a1.42 1.42 0 0 1 0 2L55 31.59 52.41 29 54 27.41a1.43 1.43 0 0 1 1-.41zm-7.41-7a3.4 3.4 0 0 0 4.82 0l.59-.59a3.4 3.4 0 0 0 0-4.82L48.41 10a3.49 3.49 0 0 0-4.82 0l-.59.59a3.4 3.4 0 0 0 0 4.82zM52 17a1.43 1.43 0 0 1-.41 1l-.59.59a1.48 1.48 0 0 1-2 0L47.41 17 50 14.41 51.59 16a1.43 1.43 0 0 1 .41 1zm-7.59-5 .59-.59a1.42 1.42 0 0 1 2 0L48.59 13 46 15.59 44.41 14a1.42 1.42 0 0 1 0-2z"/></g></svg>