<svg xmlns="http://www.w3.org/2000/svg" data-name="Layer 1" viewBox="0 0 512 512"><path d="M243.31,362.31a22.78,22.78,0,1,0-16.1,6.66A22.78,22.78,0,0,0,243.31,362.31Zm-21.59-21.59a7.77,7.77,0,1,1,0,11A7.71,7.71,0,0,1,221.72,340.72ZM454.5,129.07H365.2a71.58,71.58,0,0,0,28.7-57.2c0-39.67-32.61-71.94-72.7-71.94A72.86,72.86,0,0,0,256,40.1,72.86,72.86,0,0,0,190.8,0c-40.09,0-72.7,32.27-72.7,71.93a71.57,71.57,0,0,0,28.65,57.17H57.5A37.54,37.54,0,0,0,20,166.57v18A37.54,37.54,0,0,0,42,218.7V474.57a37.54,37.54,0,0,0,37.5,37.5h353a37.54,37.54,0,0,0,37.5-37.5V218.7a37.54,37.54,0,0,0,22-34.13v-18A37.54,37.54,0,0,0,454.5,129.07ZM321.2,14.93c31.82,0,57.7,25.54,57.7,56.94a57,57,0,0,1-36.64,53A52,52,0,0,0,302,39.9h-1.51A51.73,51.73,0,0,0,267.1,52.08,57.75,57.75,0,0,1,321.2,14.93Zm1.93,198.69a8.82,8.82,0,0,0-.23-1.16,118,118,0,0,0-30.58-57.87,9.09,9.09,0,0,0-.74-.78A130.8,130.8,0,0,0,277,140.88a110.7,110.7,0,0,1,48.54,7.75c20.06,8.24,36,22.4,45,39.89,12,23.55,8.87,48.24,5,63.13l-20-20.16a7.5,7.5,0,0,0-10.11-.48L325,247.89A123,123,0,0,0,323.13,213.62Zm-17-6.55H294V180.8A102.44,102.44,0,0,1,304.41,202C305,203.67,305.58,205.38,306.09,207.07ZM263.5,91.88a37,37,0,0,1,37-37H302a37,37,0,0,1,7.24,73.25,131.34,131.34,0,0,0-45.73-.84V91.88Zm-7.5,53a114.79,114.79,0,0,1,23,17.52v44.67H233V162.4A114.79,114.79,0,0,1,256,144.88Zm22,77.19v62.19a8.26,8.26,0,0,1-2.71.56c-1.11-.32-3.73-3-5.29-4.55-3.86-3.91-8.66-8.77-15.27-8.77h-.18c-6.88.09-11.68,5.23-15.53,9.36-1.41,1.53-3.77,4.06-4.84,4.5H234V222.07Zm-84.54-25.15a118.34,118.34,0,0,0-4.36,15.54,8.82,8.82,0,0,0-.23,1.16A123,123,0,0,0,187,247.89L166.71,231a7.5,7.5,0,0,0-10.11.48l-20,20.16c-3.91-14.89-7.07-39.58,5-63.13,8.93-17.49,24.89-31.65,44.95-39.89a109.46,109.46,0,0,1,41.5-8q3.51,0,7,.21a129.91,129.91,0,0,0-14.59,12.93,9.09,9.09,0,0,0-.74.78A119,119,0,0,0,193.46,196.92ZM218,180.8v26.27H205.91c.51-1.69,1.06-3.4,1.68-5.11A102.44,102.44,0,0,1,218,180.8Zm30.5-53.49a131.31,131.31,0,0,0-45.81.86A37,37,0,0,1,210,54.94h1.51a37,37,0,0,1,37,36.94ZM133.1,71.9C133.1,40.51,159,15,190.8,15a57.77,57.77,0,0,1,54.11,37.15,51.78,51.78,0,0,0-33.39-12.18H210a52,52,0,0,0-40.25,85A57,57,0,0,1,133.1,71.9ZM35,184.57v-18a22.52,22.52,0,0,1,22.5-22.5H162.89a98.19,98.19,0,0,0-34.73,37.62,91.3,91.3,0,0,0-8.49,25.38H57.5A22.52,22.52,0,0,1,35,184.57Zm184,312.5H79.5A22.52,22.52,0,0,1,57,474.57V222.06h61.12a121.89,121.89,0,0,0,8.12,46.33,7.5,7.5,0,0,0,12.3,2.54l23.86-24L193,272.33A7.49,7.49,0,0,0,205,264.68a110.11,110.11,0,0,1-2.39-42.61H219v59.07a15.36,15.36,0,0,0-9.25,1.24c-6.09,3-8.17,9.71-9.84,15.06-.63,2-1.67,5.39-2.46,6.24-1,.6-4.48,1-6.57,1.18-5.6.58-12.57,1.31-16.76,6.71s-3.13,12.21-2.32,17.72c.32,2.13.84,5.68.48,6.81-.64.94-3.54,2.73-5.29,3.8-4.82,3-10.83,6.68-12.27,13.46s2.51,12.61,5.7,17.3c1.15,1.7,3.07,4.51,3.27,5.63-.13,1.18-2.06,4.2-3.22,6-3,4.7-6.72,10.55-5.12,17.12s7.68,10.15,12.55,13c1.82,1.06,4.85,2.81,5.52,3.76.37,1.11,0,4.61-.3,6.71-.67,5.57-1.5,12.5,2.82,17.76s11.24,5.79,16.82,6.23c2.16.17,5.79.46,6.66,1,.79.77,1.93,4.11,2.62,6.11,1.82,5.35,4.1,12,10.35,14.9a14,14,0,0,0,6.61,1.23Zm59,0H234V465.74a7.71,7.71,0,0,1,2.71-.56c1.11.32,3.73,3,5.29,4.55,3.86,3.91,8.66,8.77,15.27,8.77h.18c6.88-.09,11.68-5.23,15.53-9.36,1.41-1.53,3.77-4.06,4.84-4.5H278Zm-3.74-47c-5.2,1.26-8.95,5.29-12.26,8.84a31.7,31.7,0,0,1-4.7,4.46,33.27,33.27,0,0,1-4.62-4.18c-3.48-3.52-7.43-7.52-12.81-8.67a15.74,15.74,0,0,0-3.25-.34c-4.23,0-8.31,1.59-12,3a34,34,0,0,1-5.93,1.93,32.18,32.18,0,0,1-2.47-6c-1.57-4.59-3.35-9.8-7.57-13.08s-9.83-3.76-14.72-4.14a32.51,32.51,0,0,1-6.31-.88,32.7,32.7,0,0,1,.38-6.38c.58-4.86,1.24-10.37-1.18-15.2s-7.19-7.58-11.41-10a32.87,32.87,0,0,1-5.37-3.55,33.67,33.67,0,0,1,3.07-5.49c2.65-4.15,5.65-8.86,5.58-14.31s-3.15-9.84-5.87-13.84c-1.14-1.68-3-4.4-3.36-5.72.87-1.05,3.67-2.78,5.4-3.84,4.11-2.54,8.78-5.42,11-10.24s1.48-10.46.76-15.33a33.69,33.69,0,0,1-.56-6.27,32.67,32.67,0,0,1,6.35-1.05c4.86-.51,10.36-1.08,14.52-4.49s5.83-8.72,7.29-13.39a32,32,0,0,1,2.26-6,32.7,32.7,0,0,1,6.11,1.78c4.62,1.65,9.87,3.51,15.13,2.23s8.95-5.29,12.26-8.84a31.7,31.7,0,0,1,4.7-4.46,33.27,33.27,0,0,1,4.62,4.18c3.48,3.52,7.43,7.52,12.81,8.67s10.62-.88,15.24-2.68a34,34,0,0,1,5.93-1.93,32.18,32.18,0,0,1,2.47,6c1.57,4.59,3.35,9.8,7.57,13.08s9.83,3.76,14.72,4.14a32.51,32.51,0,0,1,6.31.88,32.7,32.7,0,0,1-.38,6.38c-.58,4.86-1.24,10.37,1.18,15.2s7.19,7.58,11.41,10a32.87,32.87,0,0,1,5.37,3.55,33.67,33.67,0,0,1-3.07,5.49c-2.65,4.15-5.65,8.86-5.58,14.31s3.15,9.84,5.87,13.84c1.14,1.68,3,4.4,3.36,5.72-.87,1.05-3.67,2.78-5.4,3.84-4.11,2.54-8.78,5.42-11,10.24s-1.48,10.46-.76,15.33a33.69,33.69,0,0,1,.56,6.27,32.67,32.67,0,0,1-6.35,1.05c-4.86.51-10.36,1.08-14.52,4.49s-5.83,8.72-7.29,13.39a32,32,0,0,1-2.26,6,32.7,32.7,0,0,1-6.11-1.78C284.77,450.65,279.53,448.79,274.26,450.07ZM455,474.57a22.52,22.52,0,0,1-22.5,22.5H293v-28.2a15.37,15.37,0,0,0,9.25-1.25c6.09-3,8.17-9.71,9.84-15.06.63-2,1.67-5.39,2.46-6.24,1-.6,4.48-1,6.57-1.18,5.6-.58,12.57-1.31,16.76-6.71s3.13-12.21,2.32-17.72c-.32-2.13-.84-5.68-.48-6.81.64-.94,3.54-2.73,5.29-3.8,4.82-3,10.83-6.68,12.27-13.46s-2.51-12.61-5.7-17.3c-1.15-1.7-3.07-4.51-3.27-5.63.13-1.18,2.06-4.2,3.22-6,3-4.7,6.72-10.55,5.12-17.12s-7.68-10.15-12.55-13c-1.82-1.06-4.85-2.81-5.52-3.76-.37-1.11.05-4.61.3-6.71.67-5.57,1.5-12.5-2.82-17.76s-11.24-5.79-16.82-6.23c-2.16-.17-5.79-.46-6.66-1-.79-.77-1.93-4.11-2.62-6.11-1.82-5.35-4.1-12-10.35-14.9a14.08,14.08,0,0,0-6.61-1.23V222.07h16.36A110.11,110.11,0,0,1,307,264.68a7.49,7.49,0,0,0,12,7.65l30.58-25.4,23.86,24a7.5,7.5,0,0,0,12.3-2.54,121.89,121.89,0,0,0,8.12-46.33H455Zm22-290a22.52,22.52,0,0,1-22.5,22.5H392.33a91.3,91.3,0,0,0-8.49-25.38,98.19,98.19,0,0,0-34.73-37.62H454.5a22.52,22.52,0,0,1,22.5,22.5ZM300.88,419.88a22.78,22.78,0,1,0-16.09,6.66,22.78,22.78,0,0,0,16.09-6.66Zm-10.6-10.6a7.77,7.77,0,1,1,0-11A7.71,7.71,0,0,1,290.28,409.28Zm5.33-74.85a7.52,7.52,0,0,0-10.61,0L215.43,404A7.5,7.5,0,0,0,226,414.61L295.61,345A7.5,7.5,0,0,0,295.61,334.43Z"/></svg>