<svg xmlns="http://www.w3.org/2000/svg" viewBox="0 0 64 64"><path fill="#231f20" d="M54,12H50a1,1,0,0,0-.707.293L46,15.586l-2-2V3a1,1,0,0,0-1-1H39a1,1,0,0,0-.707.293L35,5.586,31.707,2.293A1,1,0,0,0,31,2H27a1,1,0,0,0-.707.293L23,5.586,19.707,2.293A1,1,0,0,0,19,2H15a1,1,0,0,0-.707.293L11,5.586,7.707,2.293A1,1,0,0,0,7,2H3A1,1,0,0,0,2,3V51a1,1,0,0,0,1,1H7a1,1,0,0,0,.707-.293L11,48.414l2,2V61a1,1,0,0,0,1,1h4a1,1,0,0,0,.707-.293L22,58.414l3.293,3.293A1,1,0,0,0,26,62h4a1,1,0,0,0,.707-.293L34,58.414l3.293,3.293A1,1,0,0,0,38,62h4a1,1,0,0,0,.707-.293L46,58.414l3.293,3.293A1,1,0,0,0,50,62h4a1,1,0,0,0,1-1V13A1,1,0,0,0,54,12ZM10.293,46.293,6.586,50H4V4H6.586l3.707,3.707a1,1,0,0,0,1.414,0L15.414,4h3.172l3.707,3.707a1,1,0,0,0,1.414,0L27.414,4h3.172l3.707,3.707a1,1,0,0,0,1.414,0L39.414,4H42V50H39.414l-3.707-3.707a1,1,0,0,0-1.414,0L30.586,50H27.414l-3.707-3.707a1,1,0,0,0-1.414,0L18.586,50H15.414l-3.707-3.707A1,1,0,0,0,10.293,46.293ZM53,60H50.414l-3.707-3.707a1,1,0,0,0-1.414,0L41.586,60H38.414l-3.707-3.707a1,1,0,0,0-1.414,0L29.586,60H26.414l-3.707-3.707a1,1,0,0,0-1.414,0L17.586,60H15V52h4a1,1,0,0,0,.707-.293L23,48.414l3.293,3.293A1,1,0,0,0,27,52h4a1,1,0,0,0,.707-.293L35,48.414l3.293,3.293A1,1,0,0,0,39,52h4a1,1,0,0,0,1-1V16.414l1.293,1.293a1,1,0,0,0,1.414,0L50.414,14H53Z"/><polygon fill="#231f20" points="15 30 15 21 18 21 18 19 10 19 10 21 13 21 13 30 15 30"/><path fill="#231f20" d="M27 30V24a1 1 0 0 0-.105-.447l-2-4A1 1 0 0 0 24 19H22a1 1 0 0 0-.895.553l-2 4A1 1 0 0 0 19 24v6h2V27h4v3zm-6-5v-.764L22.618 21h.764L25 24.236V25zM36 21V19H34a1 1 0 0 0-.914.594L32 22.038l-1.086-2.444A1 1 0 0 0 30 19H28v2h1.35l1.556 3.5L29.35 28H28v2h2a1 1 0 0 0 .914-.594L32 26.962l1.086 2.444A1 1 0 0 0 34 30h2V28H34.65l-1.556-3.5L34.65 21z"/><rect width="30" height="2" x="8" y="32" fill="#231f20"/><rect width="30" height="2" x="8" y="15" fill="#231f20"/></svg>